ISO-10303-21;
HEADER;
FILE_DESCRIPTION(('Creo Elements/Direct Modeling STEP Export'),'2;1');
FILE_NAME('N2605-01005.stp','2018-10-11T 7:03:04',(''),(''),
'PTC Creo Elements/Direct Modeling STEP processor for AP214 (Solid Model
)',
'PTC Creo Elements/Direct Modeling 19.0E  27-Jun-2016 (C) Parametric Tec
hnology GmbH','');
FILE_SCHEMA(('AUTOMOTIVE_DESIGN { 1 0 10303 214 1 1 1 1 }'));
ENDSEC;
DATA;
#10=CARTESIAN_POINT('',(-34.7234517542564,-178.3,-12.0000000000077));
#20=DIRECTION('',(1.75521551411675E-28,-5.10436433241992E-16,-1.));
#30=DIRECTION('',(8.95925946596763E-44,1.,-5.10436433241992E-16));
#40=AXIS2_PLACEMENT_3D('',#10,#20,#30);
#50=PLANE('',#40);
#60=CARTESIAN_POINT('',(-76.0000000000002,-179.3,-12.0000000000077));
#70=DIRECTION('',(1.75521551411675E-28,-5.10436433241992E-16,-1.));
#80=DIRECTION('',(8.95925946596763E-44,1.,-5.10436433241992E-16));
#90=AXIS2_PLACEMENT_3D('',#60,#70,#80);
#100=CIRCLE('',#90,3.);
#110=CARTESIAN_POINT('',(-76.0000000000002,-176.3,-12.0000000000077));
#120=VERTEX_POINT('',#110);
#130=CARTESIAN_POINT('',(-76.0000000000002,-182.3,-12.0000000000077));
#140=VERTEX_POINT('',#130);
#150=EDGE_CURVE('',#120,#140,#100,.T.);
#160=ORIENTED_EDGE('',*,*,#150,.F.);
#170=EDGE_CURVE('',#140,#120,#100,.T.);
#180=ORIENTED_EDGE('',*,*,#170,.F.);
#190=EDGE_LOOP('',(#180,#160));
#200=FACE_BOUND('',#190,.T.);
#210=CARTESIAN_POINT('',(-36.9867258771283,-174.6,-12.0000000000077));
#220=DIRECTION('',(1.,0.,1.75521551411675E-28));
#230=VECTOR('',#220,1.);
#240=LINE('',#210,#230);
#250=CARTESIAN_POINT('',(-76.5000000000001,-174.6,-12.0000000000077));
#260=VERTEX_POINT('',#250);
#270=CARTESIAN_POINT('',(-66.7000000000001,-174.6,-12.0000000000077));
#280=VERTEX_POINT('',#270);
#290=EDGE_CURVE('',#260,#280,#240,.T.);
#300=ORIENTED_EDGE('',*,*,#290,.T.);
#310=CARTESIAN_POINT('',(-76.5000000000001,-178.6,-12.0000000000077));
#320=DIRECTION('',(1.75521551411675E-28,-5.10436433241992E-16,-1.));
#330=DIRECTION('',(8.95925946596763E-44,1.,-5.10436433241992E-16));
#340=AXIS2_PLACEMENT_3D('',#310,#320,#330);
#350=CIRCLE('',#340,4.);
#360=CARTESIAN_POINT('',(-80.5000000000001,-178.6,-12.0000000000077));
#370=VERTEX_POINT('',#360);
#380=EDGE_CURVE('',#370,#260,#350,.T.);
#390=ORIENTED_EDGE('',*,*,#380,.T.);
#400=CARTESIAN_POINT('',(-80.5000000000001,-182.,-12.0000000000077));
#410=DIRECTION('',(4.80096443081149E-16,1.,-5.10436433241992E-16));
#420=VECTOR('',#410,1.);
#430=LINE('',#400,#420);
#440=CARTESIAN_POINT('',(-80.5000000000001,-184.,-12.0000000000077));
#450=VERTEX_POINT('',#440);
#460=EDGE_CURVE('',#450,#370,#430,.T.);
#470=ORIENTED_EDGE('',*,*,#460,.T.);
#480=CARTESIAN_POINT('',(84.5265482457434,-184.,-12.0000000000077));
#490=DIRECTION('',(-1.,0.,-1.75521551411675E-28));
#500=VECTOR('',#490,1.);
#510=LINE('',#480,#500);
#520=CARTESIAN_POINT('',(-66.7000000000001,-184.,-12.0000000000077));
#530=VERTEX_POINT('',#520);
#540=EDGE_CURVE('',#530,#450,#510,.T.);
#550=ORIENTED_EDGE('',*,*,#540,.T.);
#560=CARTESIAN_POINT('',(-66.7000000000001,-178.3,-12.0000000000077));
#570=DIRECTION('',(8.95925946596763E-44,1.,-5.10436433241992E-16));
#580=VECTOR('',#570,1.);
#590=LINE('',#560,#580);
#600=EDGE_CURVE('',#530,#280,#590,.T.);
#610=ORIENTED_EDGE('',*,*,#600,.F.);
#620=EDGE_LOOP('',(#610,#550,#470,#390,#300));
#630=FACE_OUTER_BOUND('',#620,.T.);
#640=ADVANCED_FACE('',(#200,#630),#50,.T.);
#650=CARTESIAN_POINT('',(-57.2500000000001,-178.3,-36.0000000000077));
#660=DIRECTION('',(1.75521551411675E-28,-5.10436433241992E-16,-1.));
#670=DIRECTION('',(8.95925946596763E-44,1.,-5.10436433241992E-16));
#680=AXIS2_PLACEMENT_3D('',#650,#660,#670);
#690=PLANE('',#680);
#700=CARTESIAN_POINT('',(-63.2000000000001,-178.3,-36.0000000000077));
#710=DIRECTION('',(-8.95925946596763E-44,-1.,5.10436433241992E-16));
#720=VECTOR('',#710,1.);
#730=LINE('',#700,#720);
#740=CARTESIAN_POINT('',(-63.2000000000001,-173.8,-36.0000000000077));
#750=VERTEX_POINT('',#740);
#760=CARTESIAN_POINT('',(-63.2000000000001,-174.6,-36.0000000000077));
#770=VERTEX_POINT('',#760);
#780=EDGE_CURVE('',#750,#770,#730,.T.);
#790=ORIENTED_EDGE('',*,*,#780,.F.);
#800=CARTESIAN_POINT('',(-63.2000000000001,-181.2,-36.0000000000077));
#810=VERTEX_POINT('',#800);
#820=EDGE_CURVE('',#770,#810,#730,.T.);
#830=ORIENTED_EDGE('',*,*,#820,.F.);
#840=CARTESIAN_POINT('',(-57.2500000000001,-181.2,-36.0000000000077));
#850=DIRECTION('',(1.,0.,1.75521551411675E-28));
#860=VECTOR('',#850,1.);
#870=LINE('',#840,#860);
#880=CARTESIAN_POINT('',(63.1999999999997,-181.2,-36.0000000000077));
#890=VERTEX_POINT('',#880);
#900=EDGE_CURVE('',#810,#890,#870,.T.);
#910=ORIENTED_EDGE('',*,*,#900,.F.);
#920=CARTESIAN_POINT('',(63.1999999999997,-178.3,-36.0000000000077));
#930=DIRECTION('',(8.95925946596763E-44,1.,-5.10436433241992E-16));
#940=VECTOR('',#930,1.);
#950=LINE('',#920,#940);
#960=CARTESIAN_POINT('',(63.1999999999997,-174.6,-36.0000000000077));
#970=VERTEX_POINT('',#960);
#980=EDGE_CURVE('',#890,#970,#950,.T.);
#990=ORIENTED_EDGE('',*,*,#980,.F.);
#1000=CARTESIAN_POINT('',(63.1999999999997,-178.3,-36.0000000000077));
#1010=DIRECTION('',(-8.95925946596763E-44,-1.,5.10436433241992E-16));
#1020=VECTOR('',#1010,1.);
#1030=LINE('',#1000,#1020);
#1040=CARTESIAN_POINT('',(63.1999999999997,-173.8,-36.0000000000077));
#1050=VERTEX_POINT('',#1040);
#1060=EDGE_CURVE('',#1050,#970,#1030,.T.);
#1070=ORIENTED_EDGE('',*,*,#1060,.T.);
#1080=CARTESIAN_POINT('',(-57.2500000000001,-173.8,-36.0000000000077));
#1090=DIRECTION('',(1.,0.,1.75521551411675E-28));
#1100=VECTOR('',#1090,1.);
#1110=LINE('',#1080,#1100);
#1120=EDGE_CURVE('',#750,#1050,#1110,.T.);
#1130=ORIENTED_EDGE('',*,*,#1120,.T.);
#1140=EDGE_LOOP('',(#1130,#1070,#990,#910,#830,#790));
#1150=FACE_OUTER_BOUND('',#1140,.T.);
#1160=ADVANCED_FACE('',(#1150),#690,.T.);
#1170=CARTESIAN_POINT('',(-65.7000000000001,-178.3,-40.2632741228796));
#1180=DIRECTION('',(-1.,0.,-1.75521551411675E-28));
#1190=DIRECTION('',(8.95925946596763E-44,1.,-5.10436433241992E-16));
#1200=AXIS2_PLACEMENT_3D('',#1170,#1180,#1190);
#1210=PLANE('',#1200);
#1220=CARTESIAN_POINT('',(-65.7000000000001,-174.6,-38.0000000000077));
#1230=DIRECTION('',(1.75521551411675E-28,-5.10436433241992E-16,-1.));
#1240=VECTOR('',#1230,1.);
#1250=LINE('',#1220,#1240);
#1260=CARTESIAN_POINT('',(-65.7000000000001,-174.6,-13.0000000000077));
#1270=VERTEX_POINT('',#1260);
#1280=CARTESIAN_POINT('',(-65.7000000000001,-174.6,-33.5000000000077));
#1290=VERTEX_POINT('',#1280);
#1300=EDGE_CURVE('',#1270,#1290,#1250,.T.);
#1310=ORIENTED_EDGE('',*,*,#1300,.T.);
#1320=CARTESIAN_POINT('',(-65.7000000000001,-178.3,-13.0000000000077));
#1330=DIRECTION('',(8.95925946596763E-44,1.,-5.10436433241992E-16));
#1340=VECTOR('',#1330,1.);
#1350=LINE('',#1320,#1340);
#1360=CARTESIAN_POINT('',(-65.7000000000001,-184.,-13.0000000000077));
#1370=VERTEX_POINT('',#1360);
#1380=EDGE_CURVE('',#1370,#1270,#1350,.T.);
#1390=ORIENTED_EDGE('',*,*,#1380,.T.);
#1400=CARTESIAN_POINT('',(-65.7000000000001,-184.,-159.513274122879));
#1410=DIRECTION('',(-1.75521551411675E-28,5.10436433241992E-16,1.));
#1420=VECTOR('',#1410,1.);
#1430=LINE('',#1400,#1420);
#1440=CARTESIAN_POINT('',(-65.7000000000001,-184.,-24.5000000000077));
#1450=VERTEX_POINT('',#1440);
#1460=EDGE_CURVE('',#1450,#1370,#1430,.T.);
#1470=ORIENTED_EDGE('',*,*,#1460,.T.);
#1480=CARTESIAN_POINT('',(-65.7000000000001,-178.3,-24.5000000000077));
#1490=DIRECTION('',(0.,1.,0.));
#1500=VECTOR('',#1490,1.);
#1510=LINE('',#1480,#1500);
#1520=CARTESIAN_POINT('',(-65.7000000000001,-181.2,-24.5000000000077));
#1530=VERTEX_POINT('',#1520);
#1540=EDGE_CURVE('',#1450,#1530,#1510,.T.);
#1550=ORIENTED_EDGE('',*,*,#1540,.F.);
#1560=CARTESIAN_POINT('',(-65.7000000000001,-181.2,-38.0000000000077));
#1570=DIRECTION('',(1.75521551411675E-28,0.,-1.));
#1580=VECTOR('',#1570,1.);
#1590=LINE('',#1560,#1580);
#1600=CARTESIAN_POINT('',(-65.7000000000001,-181.2,-33.5000000000077));
#1610=VERTEX_POINT('',#1600);
#1620=EDGE_CURVE('',#1530,#1610,#1590,.T.);
#1630=ORIENTED_EDGE('',*,*,#1620,.F.);
#1640=CARTESIAN_POINT('',(-65.7000000000001,-178.3,-33.5000000000077));
#1650=DIRECTION('',(-8.95925946596763E-44,-1.,5.10436433241992E-16));
#1660=VECTOR('',#1650,1.);
#1670=LINE('',#1640,#1660);
#1680=EDGE_CURVE('',#1290,#1610,#1670,.T.);
#1690=ORIENTED_EDGE('',*,*,#1680,.T.);
#1700=EDGE_LOOP('',(#1690,#1630,#1550,#1470,#1390,#1310));
#1710=FACE_OUTER_BOUND('',#1700,.T.);
#1720=ADVANCED_FACE('',(#1710),#1210,.T.);
#1730=CARTESIAN_POINT('',(-66.7000000000001,-178.3,-13.0000000000077));
#1740=DIRECTION('',(8.95925946596763E-44,1.,-5.10436433241992E-16));
#1750=DIRECTION('',(-1.,0.,-1.75521551411675E-28));
#1760=AXIS2_PLACEMENT_3D('',#1730,#1740,#1750);
#1770=CYLINDRICAL_SURFACE('',#1760,1.);
#1780=CARTESIAN_POINT('',(-66.7000000000001,-184.,-13.0000000000077));
#1790=DIRECTION('',(8.95925946596763E-44,1.,-5.10436433241992E-16));
#1800=DIRECTION('',(-1.,0.,-1.75521551411675E-28));
#1810=AXIS2_PLACEMENT_3D('',#1780,#1790,#1800);
#1820=CIRCLE('',#1810,1.);
#1830=EDGE_CURVE('',#530,#1370,#1820,.T.);
#1840=ORIENTED_EDGE('',*,*,#1830,.F.);
#1850=ORIENTED_EDGE('',*,*,#1380,.F.);
#1860=CARTESIAN_POINT('',(-66.7000000000001,-174.6,-13.0000000000077));
#1870=DIRECTION('',(8.95925946596763E-44,1.,-5.10436433241992E-16));
#1880=DIRECTION('',(-1.,0.,-1.75521551411675E-28));
#1890=AXIS2_PLACEMENT_3D('',#1860,#1870,#1880);
#1900=CIRCLE('',#1890,1.);
#1910=EDGE_CURVE('',#280,#1270,#1900,.T.);
#1920=ORIENTED_EDGE('',*,*,#1910,.T.);
#1930=ORIENTED_EDGE('',*,*,#600,.T.);
#1940=EDGE_LOOP('',(#1930,#1920,#1850,#1840));
#1950=FACE_OUTER_BOUND('',#1940,.T.);
#1960=ADVANCED_FACE('',(#1950),#1770,.F.);
#1970=CARTESIAN_POINT('',(-79.7765482457438,-178.3,-12.0000000000077));
#1980=DIRECTION('',(1.75521551411675E-28,-5.10436433241992E-16,-1.));
#1990=DIRECTION('',(8.95925946596763E-44,1.,-5.10436433241992E-16));
#2000=AXIS2_PLACEMENT_3D('',#1970,#1980,#1990);
#2010=PLANE('',#2000);
#2020=CARTESIAN_POINT('',(75.9999999999998,-179.3,-12.0000000000077));
#2030=DIRECTION('',(1.75521551411675E-28,-5.10436433241992E-16,-1.));
#2040=DIRECTION('',(8.95925946596763E-44,1.,-5.10436433241992E-16));
#2050=AXIS2_PLACEMENT_3D('',#2020,#2030,#2040);
#2060=CIRCLE('',#2050,3.);
#2070=CARTESIAN_POINT('',(75.9999999999998,-176.3,-12.0000000000077));
#2080=VERTEX_POINT('',#2070);
#2090=CARTESIAN_POINT('',(75.9999999999998,-182.3,-12.0000000000077));
#2100=VERTEX_POINT('',#2090);
#2110=EDGE_CURVE('',#2080,#2100,#2060,.T.);
#2120=ORIENTED_EDGE('',*,*,#2110,.F.);
#2130=EDGE_CURVE('',#2100,#2080,#2060,.T.);
#2140=ORIENTED_EDGE('',*,*,#2130,.F.);
#2150=EDGE_LOOP('',(#2140,#2120));
#2160=FACE_BOUND('',#2150,.T.);
#2170=CARTESIAN_POINT('',(39.473451754256,-184.,-12.0000000000077));
#2180=DIRECTION('',(-1.,0.,-1.75521551411675E-28));
#2190=VECTOR('',#2180,1.);
#2200=LINE('',#2170,#2190);
#2210=CARTESIAN_POINT('',(80.4999999999997,-184.,-12.0000000000077));
#2220=VERTEX_POINT('',#2210);
#2230=CARTESIAN_POINT('',(66.6999999999997,-184.,-12.0000000000077));
#2240=VERTEX_POINT('',#2230);
#2250=EDGE_CURVE('',#2220,#2240,#2200,.T.);
#2260=ORIENTED_EDGE('',*,*,#2250,.T.);
#2270=CARTESIAN_POINT('',(80.4999999999997,-174.6,-12.0000000000077));
#2280=DIRECTION('',(4.80096443081149E-16,-1.,5.10436433241992E-16));
#2290=VECTOR('',#2280,1.);
#2300=LINE('',#2270,#2290);
#2310=CARTESIAN_POINT('',(80.4999999999997,-178.6,-12.0000000000077));
#2320=VERTEX_POINT('',#2310);
#2330=EDGE_CURVE('',#2320,#2220,#2300,.T.);
#2340=ORIENTED_EDGE('',*,*,#2330,.T.);
#2350=CARTESIAN_POINT('',(76.4999999999997,-178.6,-12.0000000000077));
#2360=DIRECTION('',(1.75521551411675E-28,-5.10436433241992E-16,-1.));
#2370=DIRECTION('',(8.95925946596763E-44,1.,-5.10436433241992E-16));
#2380=AXIS2_PLACEMENT_3D('',#2350,#2360,#2370);
#2390=CIRCLE('',#2380,4.);
#2400=CARTESIAN_POINT('',(76.4999999999997,-174.6,-12.0000000000077));
#2410=VERTEX_POINT('',#2400);
#2420=EDGE_CURVE('',#2410,#2320,#2390,.T.);
#2430=ORIENTED_EDGE('',*,*,#2420,.T.);
#2440=CARTESIAN_POINT('',(36.9867258771279,-174.6,-12.0000000000077));
#2450=DIRECTION('',(1.,0.,1.75521551411675E-28));
#2460=VECTOR('',#2450,1.);
#2470=LINE('',#2440,#2460);
#2480=CARTESIAN_POINT('',(66.6999999999997,-174.6,-12.0000000000077));
#2490=VERTEX_POINT('',#2480);
#2500=EDGE_CURVE('',#2490,#2410,#2470,.T.);
#2510=ORIENTED_EDGE('',*,*,#2500,.T.);
#2520=CARTESIAN_POINT('',(66.6999999999997,-178.3,-12.0000000000077));
#2530=DIRECTION('',(-8.95925946596763E-44,-1.,5.10436433241992E-16));
#2540=VECTOR('',#2530,1.);
#2550=LINE('',#2520,#2540);
#2560=EDGE_CURVE('',#2490,#2240,#2550,.T.);
#2570=ORIENTED_EDGE('',*,*,#2560,.F.);
#2580=EDGE_LOOP('',(#2570,#2510,#2430,#2340,#2260));
#2590=FACE_OUTER_BOUND('',#2580,.T.);
#2600=ADVANCED_FACE('',(#2160,#2590),#2010,.T.);
#2610=CARTESIAN_POINT('',(65.6999999999997,-178.3,-154.763274122879));
#2620=DIRECTION('',(1.,0.,1.75521551411675E-28));
#2630=DIRECTION('',(8.95925946596763E-44,1.,-5.10436433241992E-16));
#2640=AXIS2_PLACEMENT_3D('',#2610,#2620,#2630);
#2650=PLANE('',#2640);
#2660=CARTESIAN_POINT('',(65.6999999999997,-181.2,-38.0000000000077));
#2670=DIRECTION('',(-1.75521551411675E-28,0.,1.));
#2680=VECTOR('',#2670,1.);
#2690=LINE('',#2660,#2680);
#2700=CARTESIAN_POINT('',(65.6999999999997,-181.2,-33.5000000000077));
#2710=VERTEX_POINT('',#2700);
#2720=CARTESIAN_POINT('',(65.6999999999997,-181.2,-24.5000000000077));
#2730=VERTEX_POINT('',#2720);
#2740=EDGE_CURVE('',#2710,#2730,#2690,.T.);
#2750=ORIENTED_EDGE('',*,*,#2740,.F.);
#2760=CARTESIAN_POINT('',(65.6999999999997,-178.3,-24.5000000000077));
#2770=DIRECTION('',(0.,-1.,0.));
#2780=VECTOR('',#2770,1.);
#2790=LINE('',#2760,#2780);
#2800=CARTESIAN_POINT('',(65.6999999999997,-184.,-24.5000000000077));
#2810=VERTEX_POINT('',#2800);
#2820=EDGE_CURVE('',#2730,#2810,#2790,.T.);
#2830=ORIENTED_EDGE('',*,*,#2820,.F.);
#2840=CARTESIAN_POINT('',(65.6999999999997,-184.,-35.5132741228796));
#2850=DIRECTION('',(1.75521551411675E-28,-5.10436433241992E-16,-1.));
#2860=VECTOR('',#2850,1.);
#2870=LINE('',#2840,#2860);
#2880=CARTESIAN_POINT('',(65.6999999999997,-184.,-13.0000000000077));
#2890=VERTEX_POINT('',#2880);
#2900=EDGE_CURVE('',#2890,#2810,#2870,.T.);
#2910=ORIENTED_EDGE('',*,*,#2900,.T.);
#2920=CARTESIAN_POINT('',(65.6999999999997,-178.3,-13.0000000000077));
#2930=DIRECTION('',(-8.95925946596763E-44,-1.,5.10436433241992E-16));
#2940=VECTOR('',#2930,1.);
#2950=LINE('',#2920,#2940);
#2960=CARTESIAN_POINT('',(65.6999999999997,-174.6,-13.0000000000077));
#2970=VERTEX_POINT('',#2960);
#2980=EDGE_CURVE('',#2970,#2890,#2950,.T.);
#2990=ORIENTED_EDGE('',*,*,#2980,.T.);
#3000=CARTESIAN_POINT('',(65.6999999999997,-174.6,-38.0000000000077));
#3010=DIRECTION('',(-1.75521551411675E-28,5.10436433241992E-16,1.));
#3020=VECTOR('',#3010,1.);
#3030=LINE('',#3000,#3020);
#3040=CARTESIAN_POINT('',(65.6999999999997,-174.6,-33.5000000000077));
#3050=VERTEX_POINT('',#3040);
#3060=EDGE_CURVE('',#3050,#2970,#3030,.T.);
#3070=ORIENTED_EDGE('',*,*,#3060,.T.);
#3080=CARTESIAN_POINT('',(65.6999999999997,-178.3,-33.5000000000077));
#3090=DIRECTION('',(8.95925946596763E-44,1.,-5.10436433241992E-16));
#3100=VECTOR('',#3090,1.);
#3110=LINE('',#3080,#3100);
#3120=EDGE_CURVE('',#2710,#3050,#3110,.T.);
#3130=ORIENTED_EDGE('',*,*,#3120,.T.);
#3140=EDGE_LOOP('',(#3130,#3070,#2990,#2910,#2830,#2750));
#3150=FACE_OUTER_BOUND('',#3140,.T.);
#3160=ADVANCED_FACE('',(#3150),#2650,.T.);
#3170=CARTESIAN_POINT('',(-57.2500000000001,-171.3,-39.2132741228796));
#3180=DIRECTION('',(8.95925946596763E-44,1.,-5.10436433241992E-16));
#3190=DIRECTION('',(-1.75521551411675E-28,5.10436433241992E-16,1.));
#3200=AXIS2_PLACEMENT_3D('',#3170,#3180,#3190);
#3210=PLANE('',#3200);
#3220=CARTESIAN_POINT('',(63.1999999999997,-171.3,-38.0000000000077));
#3230=DIRECTION('',(-1.75521551411675E-28,5.10436433241992E-16,1.));
#3240=VECTOR('',#3230,1.);
#3250=LINE('',#3220,#3240);
#3260=CARTESIAN_POINT('',(63.1999999999997,-171.3,-33.5000000000077));
#3270=VERTEX_POINT('',#3260);
#3280=CARTESIAN_POINT('',(63.1999999999997,-171.3,-24.0000000000078));
#3290=VERTEX_POINT('',#3280);
#3300=EDGE_CURVE('',#3270,#3290,#3250,.T.);
#3310=ORIENTED_EDGE('',*,*,#3300,.F.);
#3320=CARTESIAN_POINT('',(-57.2500000000001,-171.3,-24.0000000000078));
#3330=DIRECTION('',(-1.,0.,-1.75521551411675E-28));
#3340=VECTOR('',#3330,1.);
#3350=LINE('',#3320,#3340);
#3360=CARTESIAN_POINT('',(-63.2000000000001,-171.3,-24.0000000000078));
#3370=VERTEX_POINT('',#3360);
#3380=EDGE_CURVE('',#3290,#3370,#3350,.T.);
#3390=ORIENTED_EDGE('',*,*,#3380,.F.);
#3400=CARTESIAN_POINT('',(-63.2000000000001,-171.3,-38.0000000000077));
#3410=DIRECTION('',(1.75521551411675E-28,-5.10436433241992E-16,-1.));
#3420=VECTOR('',#3410,1.);
#3430=LINE('',#3400,#3420);
#3440=CARTESIAN_POINT('',(-63.2000000000001,-171.3,-33.5000000000077));
#3450=VERTEX_POINT('',#3440);
#3460=EDGE_CURVE('',#3370,#3450,#3430,.T.);
#3470=ORIENTED_EDGE('',*,*,#3460,.F.);
#3480=CARTESIAN_POINT('',(-57.2500000000001,-171.3,-33.5000000000077));
#3490=DIRECTION('',(1.,0.,1.75521551411675E-28));
#3500=VECTOR('',#3490,1.);
#3510=LINE('',#3480,#3500);
#3520=EDGE_CURVE('',#3450,#3270,#3510,.T.);
#3530=ORIENTED_EDGE('',*,*,#3520,.F.);
#3540=EDGE_LOOP('',(#3530,#3470,#3390,#3310));
#3550=FACE_OUTER_BOUND('',#3540,.T.);
#3560=ADVANCED_FACE('',(#3550),#3210,.T.);
#3570=CARTESIAN_POINT('',(-63.2000000000001,-178.3,-33.5000000000077));
#3580=DIRECTION('',(-8.95925946596763E-44,-1.,5.10436433241992E-16));
#3590=DIRECTION('',(1.,0.,1.75521551411675E-28));
#3600=AXIS2_PLACEMENT_3D('',#3570,#3580,#3590);
#3610=CYLINDRICAL_SURFACE('',#3600,2.5);
#3620=CARTESIAN_POINT('',(-63.2000000000001,-174.6,-33.5000000000077));
#3630=DIRECTION('',(-8.95925946596763E-44,-1.,5.10436433241992E-16));
#3640=DIRECTION('',(1.,0.,1.75521551411675E-28));
#3650=AXIS2_PLACEMENT_3D('',#3620,#3630,#3640);
#3660=CIRCLE('',#3650,2.5);
#3670=EDGE_CURVE('',#1290,#770,#3660,.T.);
#3680=ORIENTED_EDGE('',*,*,#3670,.T.);
#3690=ORIENTED_EDGE('',*,*,#1680,.F.);
#3700=CARTESIAN_POINT('',(-63.2000000000001,-181.2,-33.5000000000077));
#3710=DIRECTION('',(-8.95925946596763E-44,-1.,5.10436433241992E-16));
#3720=DIRECTION('',(1.,0.,1.75521551411675E-28));
#3730=AXIS2_PLACEMENT_3D('',#3700,#3710,#3720);
#3740=CIRCLE('',#3730,2.5);
#3750=EDGE_CURVE('',#1610,#810,#3740,.T.);
#3760=ORIENTED_EDGE('',*,*,#3750,.F.);
#3770=ORIENTED_EDGE('',*,*,#820,.T.);
#3780=EDGE_LOOP('',(#3770,#3760,#3690,#3680));
#3790=FACE_OUTER_BOUND('',#3780,.T.);
#3800=ADVANCED_FACE('',(#3790),#3610,.T.);
#3810=CARTESIAN_POINT('',(63.1999999999997,-178.3,-33.5000000000077));
#3820=DIRECTION('',(8.95925946596763E-44,1.,-5.10436433241992E-16));
#3830=DIRECTION('',(-1.,0.,-1.75521551411675E-28));
#3840=AXIS2_PLACEMENT_3D('',#3810,#3820,#3830);
#3850=CYLINDRICAL_SURFACE('',#3840,2.5);
#3860=CARTESIAN_POINT('',(63.1999999999997,-174.6,-33.5000000000077));
#3870=DIRECTION('',(8.95925946596763E-44,1.,-5.10436433241992E-16));
#3880=DIRECTION('',(-1.,0.,-1.75521551411675E-28));
#3890=AXIS2_PLACEMENT_3D('',#3860,#3870,#3880);
#3900=CIRCLE('',#3890,2.5);
#3910=EDGE_CURVE('',#3050,#970,#3900,.T.);
#3920=ORIENTED_EDGE('',*,*,#3910,.F.);
#3930=ORIENTED_EDGE('',*,*,#980,.T.);
#3940=CARTESIAN_POINT('',(63.1999999999997,-181.2,-33.5000000000077));
#3950=DIRECTION('',(8.95925946596763E-44,1.,-5.10436433241992E-16));
#3960=DIRECTION('',(-1.,0.,-1.75521551411675E-28));
#3970=AXIS2_PLACEMENT_3D('',#3940,#3950,#3960);
#3980=CIRCLE('',#3970,2.5);
#3990=EDGE_CURVE('',#2710,#890,#3980,.T.);
#4000=ORIENTED_EDGE('',*,*,#3990,.T.);
#4010=ORIENTED_EDGE('',*,*,#3120,.F.);
#4020=EDGE_LOOP('',(#4010,#4000,#3930,#3920));
#4030=FACE_OUTER_BOUND('',#4020,.T.);
#4040=ADVANCED_FACE('',(#4030),#3850,.T.);
#4050=CARTESIAN_POINT('',(66.6999999999997,-178.3,-13.0000000000077));
#4060=DIRECTION('',(-8.95925946596763E-44,-1.,5.10436433241992E-16));
#4070=DIRECTION('',(1.,0.,1.75521551411675E-28));
#4080=AXIS2_PLACEMENT_3D('',#4050,#4060,#4070);
#4090=CYLINDRICAL_SURFACE('',#4080,1.);
#4100=CARTESIAN_POINT('',(66.6999999999997,-174.6,-13.0000000000077));
#4110=DIRECTION('',(-8.95925946596763E-44,-1.,5.10436433241992E-16));
#4120=DIRECTION('',(1.,0.,1.75521551411675E-28));
#4130=AXIS2_PLACEMENT_3D('',#4100,#4110,#4120);
#4140=CIRCLE('',#4130,1.);
#4150=EDGE_CURVE('',#2490,#2970,#4140,.T.);
#4160=ORIENTED_EDGE('',*,*,#4150,.F.);
#4170=ORIENTED_EDGE('',*,*,#2980,.F.);
#4180=CARTESIAN_POINT('',(66.6999999999997,-184.,-13.0000000000077));
#4190=DIRECTION('',(-8.95925946596763E-44,-1.,5.10436433241992E-16));
#4200=DIRECTION('',(1.,0.,1.75521551411675E-28));
#4210=AXIS2_PLACEMENT_3D('',#4180,#4190,#4200);
#4220=CIRCLE('',#4210,1.);
#4230=EDGE_CURVE('',#2240,#2890,#4220,.T.);
#4240=ORIENTED_EDGE('',*,*,#4230,.T.);
#4250=ORIENTED_EDGE('',*,*,#2560,.T.);
#4260=EDGE_LOOP('',(#4250,#4240,#4170,#4160));
#4270=FACE_OUTER_BOUND('',#4260,.T.);
#4280=ADVANCED_FACE('',(#4270),#4090,.F.);
#4290=CARTESIAN_POINT('',(-57.2500000000001,-173.8,-33.5000000000077));
#4300=DIRECTION('',(1.,0.,1.75521551411675E-28));
#4310=DIRECTION('',(8.95925946596763E-44,1.,-5.10436433241992E-16));
#4320=AXIS2_PLACEMENT_3D('',#4290,#4300,#4310);
#4330=CYLINDRICAL_SURFACE('',#4320,2.5);
#4340=CARTESIAN_POINT('',(63.1999999999997,-173.8,-33.5000000000077));
#4350=DIRECTION('',(1.,0.,1.75521551411675E-28));
#4360=DIRECTION('',(8.95925946596763E-44,1.,-5.10436433241992E-16));
#4370=AXIS2_PLACEMENT_3D('',#4340,#4350,#4360);
#4380=CIRCLE('',#4370,2.5);
#4390=EDGE_CURVE('',#1050,#3270,#4380,.T.);
#4400=ORIENTED_EDGE('',*,*,#4390,.F.);
#4410=ORIENTED_EDGE('',*,*,#3520,.T.);
#4420=CARTESIAN_POINT('',(-63.2000000000001,-173.8,-33.5000000000077));
#4430=DIRECTION('',(1.,0.,1.75521551411675E-28));
#4440=DIRECTION('',(8.95925946596763E-44,1.,-5.10436433241992E-16));
#4450=AXIS2_PLACEMENT_3D('',#4420,#4430,#4440);
#4460=CIRCLE('',#4450,2.5);
#4470=EDGE_CURVE('',#750,#3450,#4460,.T.);
#4480=ORIENTED_EDGE('',*,*,#4470,.T.);
#4490=ORIENTED_EDGE('',*,*,#1120,.F.);
#4500=EDGE_LOOP('',(#4490,#4480,#4410,#4400));
#4510=FACE_OUTER_BOUND('',#4500,.T.);
#4520=ADVANCED_FACE('',(#4510),#4330,.T.);
#4530=CARTESIAN_POINT('',(-79.7765482457438,-178.3,-10.5000000000077));
#4540=DIRECTION('',(1.75521551411675E-28,-5.10436433241992E-16,-1.));
#4550=DIRECTION('',(8.95925946596763E-44,1.,-5.10436433241992E-16));
#4560=AXIS2_PLACEMENT_3D('',#4530,#4540,#4550);
#4570=PLANE('',#4560);
#4580=CARTESIAN_POINT('',(75.9999999999998,-179.3,-10.5000000000077));
#4590=DIRECTION('',(1.75521551411675E-28,-5.10436433241992E-16,-1.));
#4600=DIRECTION('',(8.95925946596763E-44,1.,-5.10436433241992E-16));
#4610=AXIS2_PLACEMENT_3D('',#4580,#4590,#4600);
#4620=CIRCLE('',#4610,1.6);
#4630=CARTESIAN_POINT('',(75.9999999999998,-177.7,-10.5000000000077));
#4640=VERTEX_POINT('',#4630);
#4650=CARTESIAN_POINT('',(75.9999999999998,-180.9,-10.5000000000077));
#4660=VERTEX_POINT('',#4650);
#4670=EDGE_CURVE('',#4640,#4660,#4620,.T.);
#4680=ORIENTED_EDGE('',*,*,#4670,.T.);
#4690=EDGE_CURVE('',#4660,#4640,#4620,.T.);
#4700=ORIENTED_EDGE('',*,*,#4690,.T.);
#4710=EDGE_LOOP('',(#4700,#4680));
#4720=FACE_BOUND('',#4710,.T.);
#4730=CARTESIAN_POINT('',(36.9867258771279,-174.6,-10.5000000000077));
#4740=DIRECTION('',(1.,0.,1.75521551411675E-28));
#4750=VECTOR('',#4740,1.);
#4760=LINE('',#4730,#4750);
#4770=CARTESIAN_POINT('',(66.6999999999997,-174.6,-10.5000000000077));
#4780=VERTEX_POINT('',#4770);
#4790=CARTESIAN_POINT('',(76.4999999999997,-174.6,-10.5000000000077));
#4800=VERTEX_POINT('',#4790);
#4810=EDGE_CURVE('',#4780,#4800,#4760,.T.);
#4820=ORIENTED_EDGE('',*,*,#4810,.F.);
#4830=CARTESIAN_POINT('',(76.4999999999997,-178.6,-10.5000000000077));
#4840=DIRECTION('',(1.75521551411675E-28,-5.10436433241992E-16,-1.));
#4850=DIRECTION('',(8.95925946596763E-44,1.,-5.10436433241992E-16));
#4860=AXIS2_PLACEMENT_3D('',#4830,#4840,#4850);
#4870=CIRCLE('',#4860,4.);
#4880=CARTESIAN_POINT('',(80.4999999999997,-178.6,-10.5000000000077));
#4890=VERTEX_POINT('',#4880);
#4900=EDGE_CURVE('',#4800,#4890,#4870,.T.);
#4910=ORIENTED_EDGE('',*,*,#4900,.F.);
#4920=CARTESIAN_POINT('',(80.4999999999997,-174.6,-10.5000000000077));
#4930=DIRECTION('',(4.80096443081149E-16,-1.,5.10436433241992E-16));
#4940=VECTOR('',#4930,1.);
#4950=LINE('',#4920,#4940);
#4960=CARTESIAN_POINT('',(80.4999999999997,-184.,-10.5000000000077));
#4970=VERTEX_POINT('',#4960);
#4980=EDGE_CURVE('',#4890,#4970,#4950,.T.);
#4990=ORIENTED_EDGE('',*,*,#4980,.F.);
#5000=CARTESIAN_POINT('',(39.473451754256,-184.,-10.5000000000077));
#5010=DIRECTION('',(-1.,0.,-1.75521551411675E-28));
#5020=VECTOR('',#5010,1.);
#5030=LINE('',#5000,#5020);
#5040=CARTESIAN_POINT('',(66.6999999999997,-184.,-10.5000000000077));
#5050=VERTEX_POINT('',#5040);
#5060=EDGE_CURVE('',#4970,#5050,#5030,.T.);
#5070=ORIENTED_EDGE('',*,*,#5060,.F.);
#5080=CARTESIAN_POINT('',(66.6999999999997,-178.3,-10.5000000000077));
#5090=DIRECTION('',(-8.95925946596763E-44,-1.,5.10436433241992E-16));
#5100=VECTOR('',#5090,1.);
#5110=LINE('',#5080,#5100);
#5120=EDGE_CURVE('',#4780,#5050,#5110,.T.);
#5130=ORIENTED_EDGE('',*,*,#5120,.T.);
#5140=EDGE_LOOP('',(#5130,#5070,#4990,#4910,#4820));
#5150=FACE_OUTER_BOUND('',#5140,.T.);
#5160=ADVANCED_FACE('',(#4720,#5150),#4570,.F.);
#5170=CARTESIAN_POINT('',(64.1999999999997,-178.3,-154.763274122879));
#5180=DIRECTION('',(1.,0.,1.75521551411675E-28));
#5190=DIRECTION('',(8.95925946596763E-44,1.,-5.10436433241992E-16));
#5200=AXIS2_PLACEMENT_3D('',#5170,#5180,#5190);
#5210=PLANE('',#5200);
#5220=CARTESIAN_POINT('',(64.1999999999997,-174.6,-38.0000000000077));
#5230=DIRECTION('',(-1.75521551411675E-28,5.10436433241992E-16,1.));
#5240=VECTOR('',#5230,1.);
#5250=LINE('',#5220,#5240);
#5260=CARTESIAN_POINT('',(64.1999999999997,-174.6,-33.5000000000077));
#5270=VERTEX_POINT('',#5260);
#5280=CARTESIAN_POINT('',(64.1999999999997,-174.6,-13.0000000000077));
#5290=VERTEX_POINT('',#5280);
#5300=EDGE_CURVE('',#5270,#5290,#5250,.T.);
#5310=ORIENTED_EDGE('',*,*,#5300,.F.);
#5320=CARTESIAN_POINT('',(64.1999999999997,-178.3,-13.0000000000077));
#5330=DIRECTION('',(-8.95925946596763E-44,-1.,5.10436433241992E-16));
#5340=VECTOR('',#5330,1.);
#5350=LINE('',#5320,#5340);
#5360=CARTESIAN_POINT('',(64.1999999999997,-184.,-13.0000000000077));
#5370=VERTEX_POINT('',#5360);
#5380=EDGE_CURVE('',#5290,#5370,#5350,.T.);
#5390=ORIENTED_EDGE('',*,*,#5380,.F.);
#5400=CARTESIAN_POINT('',(64.1999999999997,-184.,-35.5132741228796));
#5410=DIRECTION('',(1.75521551411675E-28,-5.10436433241992E-16,-1.));
#5420=VECTOR('',#5410,1.);
#5430=LINE('',#5400,#5420);
#5440=CARTESIAN_POINT('',(64.1999999999997,-184.,-24.5000000000077));
#5450=VERTEX_POINT('',#5440);
#5460=EDGE_CURVE('',#5370,#5450,#5430,.T.);
#5470=ORIENTED_EDGE('',*,*,#5460,.F.);
#5480=CARTESIAN_POINT('',(64.1999999999997,-178.3,-24.5000000000077));
#5490=DIRECTION('',(0.,-1.,0.));
#5500=VECTOR('',#5490,1.);
#5510=LINE('',#5480,#5500);
#5520=CARTESIAN_POINT('',(64.1999999999997,-181.2,-24.5000000000077));
#5530=VERTEX_POINT('',#5520);
#5540=EDGE_CURVE('',#5530,#5450,#5510,.T.);
#5550=ORIENTED_EDGE('',*,*,#5540,.T.);
#5560=CARTESIAN_POINT('',(64.1999999999997,-181.2,-38.0000000000077));
#5570=DIRECTION('',(-1.75521551411675E-28,0.,1.));
#5580=VECTOR('',#5570,1.);
#5590=LINE('',#5560,#5580);
#5600=CARTESIAN_POINT('',(64.1999999999997,-181.2,-33.5000000000077));
#5610=VERTEX_POINT('',#5600);
#5620=EDGE_CURVE('',#5610,#5530,#5590,.T.);
#5630=ORIENTED_EDGE('',*,*,#5620,.T.);
#5640=CARTESIAN_POINT('',(64.1999999999997,-178.3,-33.5000000000077));
#5650=DIRECTION('',(-8.95925946596763E-44,-1.,5.10436433241992E-16));
#5660=VECTOR('',#5650,1.);
#5670=LINE('',#5640,#5660);
#5680=EDGE_CURVE('',#5270,#5610,#5670,.T.);
#5690=ORIENTED_EDGE('',*,*,#5680,.T.);
#5700=EDGE_LOOP('',(#5690,#5630,#5550,#5470,#5390,#5310));
#5710=FACE_OUTER_BOUND('',#5700,.T.);
#5720=ADVANCED_FACE('',(#5710),#5210,.F.);
#5730=CARTESIAN_POINT('',(-64.2000000000001,-178.3,-40.2632741228796));
#5740=DIRECTION('',(-1.,0.,-1.75521551411675E-28));
#5750=DIRECTION('',(8.95925946596763E-44,1.,-5.10436433241992E-16));
#5760=AXIS2_PLACEMENT_3D('',#5730,#5740,#5750);
#5770=PLANE('',#5760);
#5780=CARTESIAN_POINT('',(-64.2000000000001,-178.3,-33.5000000000077));
#5790=DIRECTION('',(8.95925946596763E-44,1.,-5.10436433241992E-16));
#5800=VECTOR('',#5790,1.);
#5810=LINE('',#5780,#5800);
#5820=CARTESIAN_POINT('',(-64.2000000000001,-181.2,-33.5000000000077));
#5830=VERTEX_POINT('',#5820);
#5840=CARTESIAN_POINT('',(-64.2000000000001,-174.6,-33.5000000000077));
#5850=VERTEX_POINT('',#5840);
#5860=EDGE_CURVE('',#5830,#5850,#5810,.T.);
#5870=ORIENTED_EDGE('',*,*,#5860,.T.);
#5880=CARTESIAN_POINT('',(-64.2000000000001,-181.2,-38.0000000000077));
#5890=DIRECTION('',(-1.75521551411675E-28,0.,1.));
#5900=VECTOR('',#5890,1.);
#5910=LINE('',#5880,#5900);
#5920=CARTESIAN_POINT('',(-64.2000000000001,-181.2,-24.5000000000077));
#5930=VERTEX_POINT('',#5920);
#5940=EDGE_CURVE('',#5830,#5930,#5910,.T.);
#5950=ORIENTED_EDGE('',*,*,#5940,.F.);
#5960=CARTESIAN_POINT('',(-64.2000000000001,-178.3,-24.5000000000077));
#5970=DIRECTION('',(0.,1.,0.));
#5980=VECTOR('',#5970,1.);
#5990=LINE('',#5960,#5980);
#6000=CARTESIAN_POINT('',(-64.2000000000001,-184.,-24.5000000000077));
#6010=VERTEX_POINT('',#6000);
#6020=EDGE_CURVE('',#6010,#5930,#5990,.T.);
#6030=ORIENTED_EDGE('',*,*,#6020,.T.);
#6040=CARTESIAN_POINT('',(-64.2000000000001,-184.,-159.513274122879));
#6050=DIRECTION('',(-1.75521551411675E-28,5.10436433241992E-16,1.));
#6060=VECTOR('',#6050,1.);
#6070=LINE('',#6040,#6060);
#6080=CARTESIAN_POINT('',(-64.2000000000001,-184.,-13.0000000000077));
#6090=VERTEX_POINT('',#6080);
#6100=EDGE_CURVE('',#6010,#6090,#6070,.T.);
#6110=ORIENTED_EDGE('',*,*,#6100,.F.);
#6120=CARTESIAN_POINT('',(-64.2000000000001,-178.3,-13.0000000000077));
#6130=DIRECTION('',(-8.95925946596763E-44,-1.,5.10436433241992E-16));
#6140=VECTOR('',#6130,1.);
#6150=LINE('',#6120,#6140);
#6160=CARTESIAN_POINT('',(-64.2000000000001,-174.6,-13.0000000000077));
#6170=VERTEX_POINT('',#6160);
#6180=EDGE_CURVE('',#6170,#6090,#6150,.T.);
#6190=ORIENTED_EDGE('',*,*,#6180,.T.);
#6200=CARTESIAN_POINT('',(-64.2000000000001,-174.6,-38.0000000000077));
#6210=DIRECTION('',(1.75521551411675E-28,-5.10436433241992E-16,-1.));
#6220=VECTOR('',#6210,1.);
#6230=LINE('',#6200,#6220);
#6240=EDGE_CURVE('',#6170,#5850,#6230,.T.);
#6250=ORIENTED_EDGE('',*,*,#6240,.F.);
#6260=EDGE_LOOP('',(#6250,#6190,#6110,#6030,#5950,#5870));
#6270=FACE_OUTER_BOUND('',#6260,.T.);
#6280=ADVANCED_FACE('',(#6270),#5770,.F.);
#6290=CARTESIAN_POINT('',(-34.7234517542564,-178.3,-10.5000000000077));
#6300=DIRECTION('',(1.75521551411675E-28,-5.10436433241992E-16,-1.));
#6310=DIRECTION('',(8.95925946596763E-44,1.,-5.10436433241992E-16));
#6320=AXIS2_PLACEMENT_3D('',#6290,#6300,#6310);
#6330=PLANE('',#6320);
#6340=CARTESIAN_POINT('',(-76.0000000000002,-179.3,-10.5000000000077));
#6350=DIRECTION('',(1.75521551411675E-28,-5.10436433241992E-16,-1.));
#6360=DIRECTION('',(8.95925946596763E-44,1.,-5.10436433241992E-16));
#6370=AXIS2_PLACEMENT_3D('',#6340,#6350,#6360);
#6380=CIRCLE('',#6370,1.6);
#6390=CARTESIAN_POINT('',(-76.0000000000002,-177.7,-10.5000000000077));
#6400=VERTEX_POINT('',#6390);
#6410=CARTESIAN_POINT('',(-76.0000000000002,-180.9,-10.5000000000077));
#6420=VERTEX_POINT('',#6410);
#6430=EDGE_CURVE('',#6400,#6420,#6380,.T.);
#6440=ORIENTED_EDGE('',*,*,#6430,.T.);
#6450=EDGE_CURVE('',#6420,#6400,#6380,.T.);
#6460=ORIENTED_EDGE('',*,*,#6450,.T.);
#6470=EDGE_LOOP('',(#6460,#6440));
#6480=FACE_BOUND('',#6470,.T.);
#6490=CARTESIAN_POINT('',(84.5265482457434,-184.,-10.5000000000077));
#6500=DIRECTION('',(-1.,0.,-1.75521551411675E-28));
#6510=VECTOR('',#6500,1.);
#6520=LINE('',#6490,#6510);
#6530=CARTESIAN_POINT('',(-66.7000000000001,-184.,-10.5000000000077));
#6540=VERTEX_POINT('',#6530);
#6550=CARTESIAN_POINT('',(-80.5000000000001,-184.,-10.5000000000077));
#6560=VERTEX_POINT('',#6550);
#6570=EDGE_CURVE('',#6540,#6560,#6520,.T.);
#6580=ORIENTED_EDGE('',*,*,#6570,.F.);
#6590=CARTESIAN_POINT('',(-80.5000000000001,-182.,-10.5000000000077));
#6600=DIRECTION('',(4.80096443081149E-16,1.,-5.10436433241992E-16));
#6610=VECTOR('',#6600,1.);
#6620=LINE('',#6590,#6610);
#6630=CARTESIAN_POINT('',(-80.5000000000001,-178.6,-10.5000000000077));
#6640=VERTEX_POINT('',#6630);
#6650=EDGE_CURVE('',#6560,#6640,#6620,.T.);
#6660=ORIENTED_EDGE('',*,*,#6650,.F.);
#6670=CARTESIAN_POINT('',(-76.5000000000001,-178.6,-10.5000000000077));
#6680=DIRECTION('',(1.75521551411675E-28,-5.10436433241992E-16,-1.));
#6690=DIRECTION('',(8.95925946596763E-44,1.,-5.10436433241992E-16));
#6700=AXIS2_PLACEMENT_3D('',#6670,#6680,#6690);
#6710=CIRCLE('',#6700,4.);
#6720=CARTESIAN_POINT('',(-76.5000000000001,-174.6,-10.5000000000077));
#6730=VERTEX_POINT('',#6720);
#6740=EDGE_CURVE('',#6640,#6730,#6710,.T.);
#6750=ORIENTED_EDGE('',*,*,#6740,.F.);
#6760=CARTESIAN_POINT('',(-36.9867258771283,-174.6,-10.5000000000077));
#6770=DIRECTION('',(1.,0.,1.75521551411675E-28));
#6780=VECTOR('',#6770,1.);
#6790=LINE('',#6760,#6780);
#6800=CARTESIAN_POINT('',(-66.7000000000001,-174.6,-10.5000000000077));
#6810=VERTEX_POINT('',#6800);
#6820=EDGE_CURVE('',#6730,#6810,#6790,.T.);
#6830=ORIENTED_EDGE('',*,*,#6820,.F.);
#6840=CARTESIAN_POINT('',(-66.7000000000001,-178.3,-10.5000000000077));
#6850=DIRECTION('',(-8.95925946596763E-44,-1.,5.10436433241992E-16));
#6860=VECTOR('',#6850,1.);
#6870=LINE('',#6840,#6860);
#6880=EDGE_CURVE('',#6810,#6540,#6870,.T.);
#6890=ORIENTED_EDGE('',*,*,#6880,.F.);
#6900=EDGE_LOOP('',(#6890,#6830,#6750,#6660,#6580));
#6910=FACE_OUTER_BOUND('',#6900,.T.);
#6920=ADVANCED_FACE('',(#6480,#6910),#6330,.F.);
#6930=CARTESIAN_POINT('',(66.6999999999997,-178.3,-13.0000000000077));
#6940=DIRECTION('',(-8.95925946596763E-44,-1.,5.10436433241992E-16));
#6950=DIRECTION('',(1.,0.,1.75521551411675E-28));
#6960=AXIS2_PLACEMENT_3D('',#6930,#6940,#6950);
#6970=CYLINDRICAL_SURFACE('',#6960,2.5);
#6980=CARTESIAN_POINT('',(66.6999999999997,-184.,-13.0000000000077));
#6990=DIRECTION('',(-8.95925946596763E-44,-1.,5.10436433241992E-16));
#7000=DIRECTION('',(1.,0.,1.75521551411675E-28));
#7010=AXIS2_PLACEMENT_3D('',#6980,#6990,#7000);
#7020=CIRCLE('',#7010,2.5);
#7030=EDGE_CURVE('',#5050,#5370,#7020,.T.);
#7040=ORIENTED_EDGE('',*,*,#7030,.F.);
#7050=ORIENTED_EDGE('',*,*,#5380,.T.);
#7060=CARTESIAN_POINT('',(66.6999999999997,-174.6,-13.0000000000077));
#7070=DIRECTION('',(-8.95925946596763E-44,-1.,5.10436433241992E-16));
#7080=DIRECTION('',(1.,0.,1.75521551411675E-28));
#7090=AXIS2_PLACEMENT_3D('',#7060,#7070,#7080);
#7100=CIRCLE('',#7090,2.5);
#7110=EDGE_CURVE('',#4780,#5290,#7100,.T.);
#7120=ORIENTED_EDGE('',*,*,#7110,.T.);
#7130=ORIENTED_EDGE('',*,*,#5120,.F.);
#7140=EDGE_LOOP('',(#7130,#7120,#7050,#7040));
#7150=FACE_OUTER_BOUND('',#7140,.T.);
#7160=ADVANCED_FACE('',(#7150),#6970,.T.);
#7170=CARTESIAN_POINT('',(-63.2000000000001,-178.3,-33.5000000000077));
#7180=DIRECTION('',(8.95925946596763E-44,1.,-5.10436433241992E-16));
#7190=DIRECTION('',(-1.,0.,-1.75521551411675E-28));
#7200=AXIS2_PLACEMENT_3D('',#7170,#7180,#7190);
#7210=CYLINDRICAL_SURFACE('',#7200,1.);
#7220=CARTESIAN_POINT('',(-63.2000000000001,-178.3,-34.5000000000077));
#7230=DIRECTION('',(8.95925946596763E-44,1.,-5.10436433241992E-16));
#7240=VECTOR('',#7230,1.);
#7250=LINE('',#7220,#7240);
#7260=CARTESIAN_POINT('',(-63.2000000000001,-181.2,-34.5000000000077));
#7270=VERTEX_POINT('',#7260);
#7280=CARTESIAN_POINT('',(-63.2000000000001,-174.6,-34.5000000000077));
#7290=VERTEX_POINT('',#7280);
#7300=EDGE_CURVE('',#7270,#7290,#7250,.T.);
#7310=ORIENTED_EDGE('',*,*,#7300,.T.);
#7320=CARTESIAN_POINT('',(-63.2000000000001,-181.2,-33.5000000000077));
#7330=DIRECTION('',(8.95925946596763E-44,1.,-5.10436433241992E-16));
#7340=DIRECTION('',(-1.,0.,-1.75521551411675E-28));
#7350=AXIS2_PLACEMENT_3D('',#7320,#7330,#7340);
#7360=CIRCLE('',#7350,1.);
#7370=EDGE_CURVE('',#7270,#5830,#7360,.T.);
#7380=ORIENTED_EDGE('',*,*,#7370,.F.);
#7390=ORIENTED_EDGE('',*,*,#5860,.F.);
#7400=CARTESIAN_POINT('',(-63.2000000000001,-174.6,-33.5000000000077));
#7410=DIRECTION('',(-8.95925946596763E-44,-1.,5.10436433241992E-16));
#7420=DIRECTION('',(-1.,0.,-1.75521551411675E-28));
#7430=AXIS2_PLACEMENT_3D('',#7400,#7410,#7420);
#7440=CIRCLE('',#7430,1.);
#7450=EDGE_CURVE('',#5850,#7290,#7440,.T.);
#7460=ORIENTED_EDGE('',*,*,#7450,.F.);
#7470=EDGE_LOOP('',(#7460,#7390,#7380,#7310));
#7480=FACE_OUTER_BOUND('',#7470,.T.);
#7490=ADVANCED_FACE('',(#7480),#7210,.F.);
#7500=CARTESIAN_POINT('',(-57.2500000000001,-172.8,-39.2132741228796));
#7510=DIRECTION('',(8.95925946596763E-44,1.,-5.10436433241992E-16));
#7520=DIRECTION('',(-1.75521551411675E-28,5.10436433241992E-16,1.));
#7530=AXIS2_PLACEMENT_3D('',#7500,#7510,#7520);
#7540=PLANE('',#7530);
#7550=CARTESIAN_POINT('',(-63.2000000000001,-172.8,-38.0000000000077));
#7560=DIRECTION('',(1.75521551411675E-28,-5.10436433241992E-16,-1.));
#7570=VECTOR('',#7560,1.);
#7580=LINE('',#7550,#7570);
#7590=CARTESIAN_POINT('',(-63.2000000000001,-172.8,-24.0000000000078));
#7600=VERTEX_POINT('',#7590);
#7610=CARTESIAN_POINT('',(-63.2000000000001,-172.8,-33.5000000000077));
#7620=VERTEX_POINT('',#7610);
#7630=EDGE_CURVE('',#7600,#7620,#7580,.T.);
#7640=ORIENTED_EDGE('',*,*,#7630,.T.);
#7650=CARTESIAN_POINT('',(-57.2500000000001,-172.8,-24.0000000000078));
#7660=DIRECTION('',(-1.,0.,-1.75521551411675E-28));
#7670=VECTOR('',#7660,1.);
#7680=LINE('',#7650,#7670);
#7690=CARTESIAN_POINT('',(63.1999999999997,-172.8,-24.0000000000078));
#7700=VERTEX_POINT('',#7690);
#7710=EDGE_CURVE('',#7700,#7600,#7680,.T.);
#7720=ORIENTED_EDGE('',*,*,#7710,.T.);
#7730=CARTESIAN_POINT('',(63.1999999999997,-172.8,-38.0000000000077));
#7740=DIRECTION('',(-1.75521551411675E-28,5.10436433241992E-16,1.));
#7750=VECTOR('',#7740,1.);
#7760=LINE('',#7730,#7750);
#7770=CARTESIAN_POINT('',(63.1999999999997,-172.8,-33.5000000000077));
#7780=VERTEX_POINT('',#7770);
#7790=EDGE_CURVE('',#7780,#7700,#7760,.T.);
#7800=ORIENTED_EDGE('',*,*,#7790,.T.);
#7810=CARTESIAN_POINT('',(-57.2500000000001,-172.8,-33.5000000000077));
#7820=DIRECTION('',(-1.,0.,-1.75521551411675E-28));
#7830=VECTOR('',#7820,1.);
#7840=LINE('',#7810,#7830);
#7850=EDGE_CURVE('',#7780,#7620,#7840,.T.);
#7860=ORIENTED_EDGE('',*,*,#7850,.F.);
#7870=EDGE_LOOP('',(#7860,#7800,#7720,#7640));
#7880=FACE_OUTER_BOUND('',#7870,.T.);
#7890=ADVANCED_FACE('',(#7880),#7540,.F.);
#7900=CARTESIAN_POINT('',(63.1999999999997,-178.3,-33.5000000000077));
#7910=DIRECTION('',(-8.95925946596763E-44,-1.,5.10436433241992E-16));
#7920=DIRECTION('',(1.,0.,1.75521551411675E-28));
#7930=AXIS2_PLACEMENT_3D('',#7900,#7910,#7920);
#7940=CYLINDRICAL_SURFACE('',#7930,1.);
#7950=ORIENTED_EDGE('',*,*,#5680,.F.);
#7960=CARTESIAN_POINT('',(63.1999999999997,-181.2,-33.5000000000077));
#7970=DIRECTION('',(-8.95925946596763E-44,-1.,5.10436433241992E-16));
#7980=DIRECTION('',(1.,0.,1.75521551411675E-28));
#7990=AXIS2_PLACEMENT_3D('',#7960,#7970,#7980);
#8000=CIRCLE('',#7990,1.);
#8010=CARTESIAN_POINT('',(63.1999999999997,-181.2,-34.5000000000077));
#8020=VERTEX_POINT('',#8010);
#8030=EDGE_CURVE('',#8020,#5610,#8000,.T.);
#8040=ORIENTED_EDGE('',*,*,#8030,.T.);
#8050=CARTESIAN_POINT('',(63.1999999999997,-178.3,-34.5000000000077));
#8060=DIRECTION('',(-8.95925946596763E-44,-1.,5.10436433241992E-16));
#8070=VECTOR('',#8060,1.);
#8080=LINE('',#8050,#8070);
#8090=CARTESIAN_POINT('',(63.1999999999997,-174.6,-34.5000000000077));
#8100=VERTEX_POINT('',#8090);
#8110=EDGE_CURVE('',#8100,#8020,#8080,.T.);
#8120=ORIENTED_EDGE('',*,*,#8110,.T.);
#8130=CARTESIAN_POINT('',(63.1999999999997,-174.6,-33.5000000000077));
#8140=DIRECTION('',(-8.95925946596763E-44,-1.,5.10436433241992E-16));
#8150=DIRECTION('',(1.,0.,1.75521551411675E-28));
#8160=AXIS2_PLACEMENT_3D('',#8130,#8140,#8150);
#8170=CIRCLE('',#8160,1.);
#8180=EDGE_CURVE('',#8100,#5270,#8170,.T.);
#8190=ORIENTED_EDGE('',*,*,#8180,.F.);
#8200=EDGE_LOOP('',(#8190,#8120,#8040,#7950));
#8210=FACE_OUTER_BOUND('',#8200,.T.);
#8220=ADVANCED_FACE('',(#8210),#7940,.F.);
#8230=CARTESIAN_POINT('',(-66.7000000000001,-178.3,-13.0000000000077));
#8240=DIRECTION('',(-8.95925946596763E-44,-1.,5.10436433241992E-16));
#8250=DIRECTION('',(1.,0.,1.75521551411675E-28));
#8260=AXIS2_PLACEMENT_3D('',#8230,#8240,#8250);
#8270=CYLINDRICAL_SURFACE('',#8260,2.5);
#8280=CARTESIAN_POINT('',(-66.7000000000001,-184.,-13.0000000000077));
#8290=DIRECTION('',(-8.95925946596763E-44,-1.,5.10436433241992E-16));
#8300=DIRECTION('',(1.,0.,1.75521551411675E-28));
#8310=AXIS2_PLACEMENT_3D('',#8280,#8290,#8300);
#8320=CIRCLE('',#8310,2.5);
#8330=EDGE_CURVE('',#6090,#6540,#8320,.T.);
#8340=ORIENTED_EDGE('',*,*,#8330,.F.);
#8350=ORIENTED_EDGE('',*,*,#6880,.T.);
#8360=CARTESIAN_POINT('',(-66.7000000000001,-174.6,-13.0000000000077));
#8370=DIRECTION('',(-8.95925946596763E-44,-1.,5.10436433241992E-16));
#8380=DIRECTION('',(1.,0.,1.75521551411675E-28));
#8390=AXIS2_PLACEMENT_3D('',#8360,#8370,#8380);
#8400=CIRCLE('',#8390,2.5);
#8410=EDGE_CURVE('',#6170,#6810,#8400,.T.);
#8420=ORIENTED_EDGE('',*,*,#8410,.T.);
#8430=ORIENTED_EDGE('',*,*,#6180,.F.);
#8440=EDGE_LOOP('',(#8430,#8420,#8350,#8340));
#8450=FACE_OUTER_BOUND('',#8440,.T.);
#8460=ADVANCED_FACE('',(#8450),#8270,.T.);
#8470=CARTESIAN_POINT('',(-57.2500000000001,-178.3,-34.5000000000077));
#8480=DIRECTION('',(1.75521551411675E-28,-5.10436433241992E-16,-1.));
#8490=DIRECTION('',(8.95925946596763E-44,1.,-5.10436433241992E-16));
#8500=AXIS2_PLACEMENT_3D('',#8470,#8480,#8490);
#8510=PLANE('',#8500);
#8520=CARTESIAN_POINT('',(-57.2500000000001,-173.8,-34.5000000000077));
#8530=DIRECTION('',(-1.,0.,-1.75521551411675E-28));
#8540=VECTOR('',#8530,1.);
#8550=LINE('',#8520,#8540);
#8560=CARTESIAN_POINT('',(63.1999999999997,-173.8,-34.5000000000077));
#8570=VERTEX_POINT('',#8560);
#8580=CARTESIAN_POINT('',(-63.2000000000001,-173.8,-34.5000000000077));
#8590=VERTEX_POINT('',#8580);
#8600=EDGE_CURVE('',#8570,#8590,#8550,.T.);
#8610=ORIENTED_EDGE('',*,*,#8600,.T.);
#8620=CARTESIAN_POINT('',(63.1999999999997,-178.3,-34.5000000000077));
#8630=DIRECTION('',(-8.95925946596763E-44,-1.,5.10436433241992E-16));
#8640=VECTOR('',#8630,1.);
#8650=LINE('',#8620,#8640);
#8660=EDGE_CURVE('',#8570,#8100,#8650,.T.);
#8670=ORIENTED_EDGE('',*,*,#8660,.F.);
#8680=ORIENTED_EDGE('',*,*,#8110,.F.);
#8690=CARTESIAN_POINT('',(-57.2500000000001,-181.2,-34.5000000000077));
#8700=DIRECTION('',(-1.,0.,-1.75521551411675E-28));
#8710=VECTOR('',#8700,1.);
#8720=LINE('',#8690,#8710);
#8730=EDGE_CURVE('',#8020,#7270,#8720,.T.);
#8740=ORIENTED_EDGE('',*,*,#8730,.F.);
#8750=ORIENTED_EDGE('',*,*,#7300,.F.);
#8760=CARTESIAN_POINT('',(-63.2000000000001,-178.3,-34.5000000000077));
#8770=DIRECTION('',(8.95925946596763E-44,1.,-5.10436433241992E-16));
#8780=VECTOR('',#8770,1.);
#8790=LINE('',#8760,#8780);
#8800=EDGE_CURVE('',#7290,#8590,#8790,.T.);
#8810=ORIENTED_EDGE('',*,*,#8800,.F.);
#8820=EDGE_LOOP('',(#8810,#8750,#8740,#8680,#8670,#8610));
#8830=FACE_OUTER_BOUND('',#8820,.T.);
#8840=ADVANCED_FACE('',(#8830),#8510,.F.);
#8850=CARTESIAN_POINT('',(-57.2500000000001,-173.8,-33.5000000000077));
#8860=DIRECTION('',(-1.,0.,-1.75521551411675E-28));
#8870=DIRECTION('',(-8.95925946596763E-44,-1.,5.10436433241992E-16));
#8880=AXIS2_PLACEMENT_3D('',#8850,#8860,#8870);
#8890=CYLINDRICAL_SURFACE('',#8880,1.);
#8900=CARTESIAN_POINT('',(63.1999999999997,-173.8,-33.5000000000077));
#8910=DIRECTION('',(-1.,0.,-1.75521551411675E-28));
#8920=DIRECTION('',(-8.95925946596763E-44,-1.,5.10436433241992E-16));
#8930=AXIS2_PLACEMENT_3D('',#8900,#8910,#8920);
#8940=CIRCLE('',#8930,1.);
#8950=EDGE_CURVE('',#7780,#8570,#8940,.T.);
#8960=ORIENTED_EDGE('',*,*,#8950,.F.);
#8970=ORIENTED_EDGE('',*,*,#8600,.F.);
#8980=CARTESIAN_POINT('',(-63.2000000000001,-173.8,-33.5000000000077));
#8990=DIRECTION('',(-1.,0.,-1.75521551411675E-28));
#9000=DIRECTION('',(-8.95925946596763E-44,-1.,5.10436433241992E-16));
#9010=AXIS2_PLACEMENT_3D('',#8980,#8990,#9000);
#9020=CIRCLE('',#9010,1.);
#9030=EDGE_CURVE('',#7620,#8590,#9020,.T.);
#9040=ORIENTED_EDGE('',*,*,#9030,.T.);
#9050=ORIENTED_EDGE('',*,*,#7850,.T.);
#9060=EDGE_LOOP('',(#9050,#9040,#8970,#8960));
#9070=FACE_OUTER_BOUND('',#9060,.T.);
#9080=ADVANCED_FACE('',(#9070),#8890,.F.);
#9090=CARTESIAN_POINT('',(-62.0000000000001,-184.,-38.0000000000077));
#9100=DIRECTION('',(8.95925946596763E-44,1.,-5.10436433241992E-16));
#9110=DIRECTION('',(-1.,0.,-1.75521551411675E-28));
#9120=AXIS2_PLACEMENT_3D('',#9090,#9100,#9110);
#9130=PLANE('',#9120);
#9140=CARTESIAN_POINT('',(-57.2500000000001,-184.,-24.5000000000077));
#9150=DIRECTION('',(1.,0.,1.75521551411675E-28));
#9160=VECTOR('',#9150,1.);
#9170=LINE('',#9140,#9160);
#9180=EDGE_CURVE('',#1450,#6010,#9170,.T.);
#9190=ORIENTED_EDGE('',*,*,#9180,.T.);
#9200=ORIENTED_EDGE('',*,*,#1460,.F.);
#9210=ORIENTED_EDGE('',*,*,#1830,.T.);
#9220=ORIENTED_EDGE('',*,*,#540,.F.);
#9230=CARTESIAN_POINT('',(-80.5000000000001,-184.,-38.0000000000077));
#9240=DIRECTION('',(-1.75521551411675E-28,5.10436433241992E-16,1.));
#9250=VECTOR('',#9240,1.);
#9260=LINE('',#9230,#9250);
#9270=EDGE_CURVE('',#450,#6560,#9260,.T.);
#9280=ORIENTED_EDGE('',*,*,#9270,.F.);
#9290=ORIENTED_EDGE('',*,*,#6570,.T.);
#9300=ORIENTED_EDGE('',*,*,#8330,.T.);
#9310=ORIENTED_EDGE('',*,*,#6100,.T.);
#9320=EDGE_LOOP('',(#9310,#9300,#9290,#9280,#9220,#9210,#9200,#9190));
#9330=FACE_OUTER_BOUND('',#9320,.T.);
#9340=ADVANCED_FACE('',(#9330),#9130,.F.);
#9350=CARTESIAN_POINT('',(35.773451754256,-174.6,105.749999999992));
#9360=DIRECTION('',(8.95925946596763E-44,1.,-5.10436433241992E-16));
#9370=DIRECTION('',(1.,0.,1.75521551411675E-28));
#9380=AXIS2_PLACEMENT_3D('',#9350,#9360,#9370);
#9390=PLANE('',#9380);
#9400=ORIENTED_EDGE('',*,*,#7110,.F.);
#9410=ORIENTED_EDGE('',*,*,#5300,.T.);
#9420=ORIENTED_EDGE('',*,*,#8180,.T.);
#9430=CARTESIAN_POINT('',(63.1999999999997,-174.6,-38.0000000000077));
#9440=DIRECTION('',(-1.75521551411675E-28,5.10436433241992E-16,1.));
#9450=VECTOR('',#9440,1.);
#9460=LINE('',#9430,#9450);
#9470=EDGE_CURVE('',#970,#8100,#9460,.T.);
#9480=ORIENTED_EDGE('',*,*,#9470,.T.);
#9490=ORIENTED_EDGE('',*,*,#3910,.T.);
#9500=ORIENTED_EDGE('',*,*,#3060,.F.);
#9510=ORIENTED_EDGE('',*,*,#4150,.T.);
#9520=ORIENTED_EDGE('',*,*,#2500,.F.);
#9530=CARTESIAN_POINT('',(76.4999999999997,-174.6,-38.0000000000077));
#9540=DIRECTION('',(1.75521551411675E-28,-5.10436433241992E-16,-1.));
#9550=VECTOR('',#9540,1.);
#9560=LINE('',#9530,#9550);
#9570=EDGE_CURVE('',#4800,#2410,#9560,.T.);
#9580=ORIENTED_EDGE('',*,*,#9570,.T.);
#9590=ORIENTED_EDGE('',*,*,#4810,.T.);
#9600=EDGE_LOOP('',(#9590,#9580,#9520,#9510,#9500,#9490,#9480,#9420,
#9410,#9400));
#9610=FACE_OUTER_BOUND('',#9600,.T.);
#9620=ADVANCED_FACE('',(#9610),#9390,.T.);
#9630=CARTESIAN_POINT('',(-57.2500000000001,-174.6,-39.2132741228796));
#9640=DIRECTION('',(8.95925946596763E-44,1.,-5.10436433241992E-16));
#9650=DIRECTION('',(-1.75521551411675E-28,5.10436433241992E-16,1.));
#9660=AXIS2_PLACEMENT_3D('',#9630,#9640,#9650);
#9670=PLANE('',#9660);
#9680=ORIENTED_EDGE('',*,*,#3670,.F.);
#9690=CARTESIAN_POINT('',(-63.2000000000001,-174.6,-38.0000000000077));
#9700=DIRECTION('',(-1.75521551411675E-28,5.10436433241992E-16,1.));
#9710=VECTOR('',#9700,1.);
#9720=LINE('',#9690,#9710);
#9730=EDGE_CURVE('',#770,#7290,#9720,.T.);
#9740=ORIENTED_EDGE('',*,*,#9730,.F.);
#9750=ORIENTED_EDGE('',*,*,#7450,.T.);
#9760=ORIENTED_EDGE('',*,*,#6240,.T.);
#9770=ORIENTED_EDGE('',*,*,#8410,.F.);
#9780=ORIENTED_EDGE('',*,*,#6820,.T.);
#9790=CARTESIAN_POINT('',(-76.5000000000001,-174.6,-38.0000000000077));
#9800=DIRECTION('',(1.75521551411675E-28,-5.10436433241992E-16,-1.));
#9810=VECTOR('',#9800,1.);
#9820=LINE('',#9790,#9810);
#9830=EDGE_CURVE('',#6730,#260,#9820,.T.);
#9840=ORIENTED_EDGE('',*,*,#9830,.F.);
#9850=ORIENTED_EDGE('',*,*,#290,.F.);
#9860=ORIENTED_EDGE('',*,*,#1910,.F.);
#9870=ORIENTED_EDGE('',*,*,#1300,.F.);
#9880=EDGE_LOOP('',(#9870,#9860,#9850,#9840,#9780,#9770,#9760,#9750,
#9740,#9680));
#9890=FACE_OUTER_BOUND('',#9880,.T.);
#9900=ADVANCED_FACE('',(#9890),#9670,.T.);
#9910=CARTESIAN_POINT('',(-96.6000024000001,-187.,-24.5000000000077));
#9920=DIRECTION('',(-1.75521551411675E-28,0.,1.));
#9930=DIRECTION('',(0.,1.,0.));
#9940=AXIS2_PLACEMENT_3D('',#9910,#9920,#9930);
#9950=PLANE('',#9940);
#9960=EDGE_CURVE('',#5450,#2810,#9170,.T.);
#9970=ORIENTED_EDGE('',*,*,#9960,.F.);
#9980=ORIENTED_EDGE('',*,*,#2820,.T.);
#9990=CARTESIAN_POINT('',(-96.6000024000001,-181.2,-24.5000000000077));
#10000=DIRECTION('',(1.,0.,1.75521551411675E-28));
#10010=VECTOR('',#10000,1.);
#10020=LINE('',#9990,#10010);
#10030=EDGE_CURVE('',#5530,#2730,#10020,.T.);
#10040=ORIENTED_EDGE('',*,*,#10030,.T.);
#10050=ORIENTED_EDGE('',*,*,#5540,.F.);
#10060=EDGE_LOOP('',(#10050,#10040,#9980,#9970));
#10070=FACE_OUTER_BOUND('',#10060,.T.);
#10080=ADVANCED_FACE('',(#10070),#9950,.F.);
#10090=ORIENTED_EDGE('',*,*,#9180,.F.);
#10100=ORIENTED_EDGE('',*,*,#6020,.F.);
#10110=EDGE_CURVE('',#1530,#5930,#10020,.T.);
#10120=ORIENTED_EDGE('',*,*,#10110,.T.);
#10130=ORIENTED_EDGE('',*,*,#1540,.T.);
#10140=EDGE_LOOP('',(#10130,#10120,#10100,#10090));
#10150=FACE_OUTER_BOUND('',#10140,.T.);
#10160=ADVANCED_FACE('',(#10150),#9950,.F.);
#10170=CARTESIAN_POINT('',(-96.6000024000001,-181.2,-24.5000000000077));
#10180=DIRECTION('',(0.,1.,0.));
#10190=DIRECTION('',(1.75521551411675E-28,0.,-1.));
#10200=AXIS2_PLACEMENT_3D('',#10170,#10180,#10190);
#10210=PLANE('',#10200);
#10220=ORIENTED_EDGE('',*,*,#10030,.F.);
#10230=ORIENTED_EDGE('',*,*,#2740,.T.);
#10240=ORIENTED_EDGE('',*,*,#3990,.F.);
#10250=ORIENTED_EDGE('',*,*,#900,.T.);
#10260=ORIENTED_EDGE('',*,*,#3750,.T.);
#10270=ORIENTED_EDGE('',*,*,#1620,.T.);
#10280=ORIENTED_EDGE('',*,*,#10110,.F.);
#10290=ORIENTED_EDGE('',*,*,#5940,.T.);
#10300=ORIENTED_EDGE('',*,*,#7370,.T.);
#10310=ORIENTED_EDGE('',*,*,#8730,.T.);
#10320=ORIENTED_EDGE('',*,*,#8030,.F.);
#10330=ORIENTED_EDGE('',*,*,#5620,.F.);
#10340=EDGE_LOOP('',(#10330,#10320,#10310,#10300,#10290,#10280,#10270,
#10260,#10250,#10240,#10230,#10220));
#10350=FACE_OUTER_BOUND('',#10340,.T.);
#10360=ADVANCED_FACE('',(#10350),#10210,.F.);
#10370=CARTESIAN_POINT('',(-76.0000000000002,-179.3,-10.6000000000077));
#10380=DIRECTION('',(0.,0.,-1.));
#10390=DIRECTION('',(8.95925946596763E-44,1.,-5.10436433241992E-16));
#10400=AXIS2_PLACEMENT_3D('',#10370,#10380,#10390);
#10410=CONICAL_SURFACE('',#10400,1.6,0.785398163397449);
#10420=CARTESIAN_POINT('',(-76.0000000000002,-177.7,-10.6000000000077));
#10430=DIRECTION('',(0.,0.707106781186547,-0.707106781186548));
#10440=VECTOR('',#10430,2.26274169979695);
#10450=LINE('',#10420,#10440);
#10460=CARTESIAN_POINT('',(-76.0000000000002,-177.7,-10.6000000000077));
#10470=VERTEX_POINT('',#10460);
#10480=EDGE_CURVE('',#10470,#120,#10450,.T.);
#10490=ORIENTED_EDGE('',*,*,#10480,.F.);
#10500=ORIENTED_EDGE('',*,*,#170,.T.);
#10510=CARTESIAN_POINT('',(-76.0000000000002,-180.9,-10.6000000000077));
#10520=DIRECTION('',(0.,-0.707106781186547,-0.707106781186548));
#10530=VECTOR('',#10520,2.26274169979695);
#10540=LINE('',#10510,#10530);
#10550=CARTESIAN_POINT('',(-76.0000000000002,-180.9,-10.6000000000077));
#10560=VERTEX_POINT('',#10550);
#10570=EDGE_CURVE('',#10560,#140,#10540,.T.);
#10580=ORIENTED_EDGE('',*,*,#10570,.T.);
#10590=CARTESIAN_POINT('',(-76.0000000000002,-179.3,-10.6000000000077));
#10600=DIRECTION('',(1.75521551411675E-28,-5.10436433241992E-16,-1.));
#10610=DIRECTION('',(8.95925946596763E-44,1.,-5.10436433241992E-16));
#10620=AXIS2_PLACEMENT_3D('',#10590,#10600,#10610);
#10630=CIRCLE('',#10620,1.6);
#10640=EDGE_CURVE('',#10560,#10470,#10630,.T.);
#10650=ORIENTED_EDGE('',*,*,#10640,.F.);
#10660=EDGE_LOOP('',(#10650,#10580,#10500,#10490));
#10670=FACE_OUTER_BOUND('',#10660,.T.);
#10680=ADVANCED_FACE('',(#10670),#10410,.F.);
#10690=CARTESIAN_POINT('',(-76.5000000000001,-178.6,-38.0000000000077));
#10700=DIRECTION('',(1.75521551411675E-28,-5.10436433241992E-16,-1.));
#10710=DIRECTION('',(8.95925946596763E-44,1.,-5.10436433241992E-16));
#10720=AXIS2_PLACEMENT_3D('',#10690,#10700,#10710);
#10730=CYLINDRICAL_SURFACE('',#10720,4.);
#10740=ORIENTED_EDGE('',*,*,#6740,.T.);
#10750=CARTESIAN_POINT('',(-80.5000000000001,-178.6,-38.0000000000077));
#10760=DIRECTION('',(1.75521551411675E-28,-5.10436433241992E-16,-1.));
#10770=VECTOR('',#10760,1.);
#10780=LINE('',#10750,#10770);
#10790=EDGE_CURVE('',#6640,#370,#10780,.T.);
#10800=ORIENTED_EDGE('',*,*,#10790,.F.);
#10810=ORIENTED_EDGE('',*,*,#380,.F.);
#10820=ORIENTED_EDGE('',*,*,#9830,.T.);
#10830=EDGE_LOOP('',(#10820,#10810,#10800,#10740));
#10840=FACE_OUTER_BOUND('',#10830,.T.);
#10850=ADVANCED_FACE('',(#10840),#10730,.T.);
#10860=CARTESIAN_POINT('',(75.9999999999998,-179.3,-10.6000000000077));
#10870=DIRECTION('',(0.,0.,-1.));
#10880=DIRECTION('',(8.95925946596763E-44,1.,-5.10436433241992E-16));
#10890=AXIS2_PLACEMENT_3D('',#10860,#10870,#10880);
#10900=CONICAL_SURFACE('',#10890,1.6,0.785398163397449);
#10910=CARTESIAN_POINT('',(75.9999999999998,-177.7,-10.6000000000077));
#10920=DIRECTION('',(0.,0.707106781186547,-0.707106781186548));
#10930=VECTOR('',#10920,2.26274169979695);
#10940=LINE('',#10910,#10930);
#10950=CARTESIAN_POINT('',(75.9999999999998,-177.7,-10.6000000000077));
#10960=VERTEX_POINT('',#10950);
#10970=EDGE_CURVE('',#10960,#2080,#10940,.T.);
#10980=ORIENTED_EDGE('',*,*,#10970,.F.);
#10990=ORIENTED_EDGE('',*,*,#2130,.T.);
#11000=CARTESIAN_POINT('',(75.9999999999998,-180.9,-10.6000000000077));
#11010=DIRECTION('',(0.,-0.707106781186547,-0.707106781186548));
#11020=VECTOR('',#11010,2.26274169979695);
#11030=LINE('',#11000,#11020);
#11040=CARTESIAN_POINT('',(75.9999999999998,-180.9,-10.6000000000077));
#11050=VERTEX_POINT('',#11040);
#11060=EDGE_CURVE('',#11050,#2100,#11030,.T.);
#11070=ORIENTED_EDGE('',*,*,#11060,.T.);
#11080=CARTESIAN_POINT('',(75.9999999999998,-179.3,-10.6000000000077));
#11090=DIRECTION('',(1.75521551411675E-28,-5.10436433241992E-16,-1.));
#11100=DIRECTION('',(8.95925946596763E-44,1.,-5.10436433241992E-16));
#11110=AXIS2_PLACEMENT_3D('',#11080,#11090,#11100);
#11120=CIRCLE('',#11110,1.6);
#11130=EDGE_CURVE('',#11050,#10960,#11120,.T.);
#11140=ORIENTED_EDGE('',*,*,#11130,.F.);
#11150=EDGE_LOOP('',(#11140,#11070,#10990,#10980));
#11160=FACE_OUTER_BOUND('',#11150,.T.);
#11170=ADVANCED_FACE('',(#11160),#10900,.F.);
#11180=CARTESIAN_POINT('',(75.9999999999998,-179.3,-7.74999760000772));
#11190=DIRECTION('',(1.75521551411675E-28,-5.10436433241992E-16,-1.));
#11200=DIRECTION('',(8.95925946596763E-44,1.,-5.10436433241992E-16));
#11210=AXIS2_PLACEMENT_3D('',#11180,#11190,#11200);
#11220=CYLINDRICAL_SURFACE('',#11210,1.6);
#11230=CARTESIAN_POINT('',(75.9999999999998,-177.7,-7.74999760000772));
#11240=DIRECTION('',(1.75521551411675E-28,-5.10436433241992E-16,-1.));
#11250=VECTOR('',#11240,1.);
#11260=LINE('',#11230,#11250);
#11270=EDGE_CURVE('',#4640,#10960,#11260,.T.);
#11280=ORIENTED_EDGE('',*,*,#11270,.F.);
#11290=ORIENTED_EDGE('',*,*,#11130,.T.);
#11300=CARTESIAN_POINT('',(75.9999999999998,-180.9,-7.74999760000772));
#11310=DIRECTION('',(1.75521551411675E-28,-5.10436433241992E-16,-1.));
#11320=VECTOR('',#11310,1.);
#11330=LINE('',#11300,#11320);
#11340=EDGE_CURVE('',#4660,#11050,#11330,.T.);
#11350=ORIENTED_EDGE('',*,*,#11340,.T.);
#11360=ORIENTED_EDGE('',*,*,#4690,.F.);
#11370=EDGE_LOOP('',(#11360,#11350,#11290,#11280));
#11380=FACE_OUTER_BOUND('',#11370,.T.);
#11390=ADVANCED_FACE('',(#11380),#11220,.F.);
#11400=CARTESIAN_POINT('',(-76.0000000000002,-179.3,-7.74999760000772));
#11410=DIRECTION('',(1.75521551411675E-28,-5.10436433241992E-16,-1.));
#11420=DIRECTION('',(8.95925946596763E-44,1.,-5.10436433241992E-16));
#11430=AXIS2_PLACEMENT_3D('',#11400,#11410,#11420);
#11440=CYLINDRICAL_SURFACE('',#11430,1.6);
#11450=CARTESIAN_POINT('',(-76.0000000000002,-177.7,-7.74999760000772));
#11460=DIRECTION('',(1.75521551411675E-28,-5.10436433241992E-16,-1.));
#11470=VECTOR('',#11460,1.);
#11480=LINE('',#11450,#11470);
#11490=EDGE_CURVE('',#6400,#10470,#11480,.T.);
#11500=ORIENTED_EDGE('',*,*,#11490,.F.);
#11510=ORIENTED_EDGE('',*,*,#10640,.T.);
#11520=CARTESIAN_POINT('',(-76.0000000000002,-180.9,-7.74999760000772));
#11530=DIRECTION('',(1.75521551411675E-28,-5.10436433241992E-16,-1.));
#11540=VECTOR('',#11530,1.);
#11550=LINE('',#11520,#11540);
#11560=EDGE_CURVE('',#6420,#10560,#11550,.T.);
#11570=ORIENTED_EDGE('',*,*,#11560,.T.);
#11580=ORIENTED_EDGE('',*,*,#6450,.F.);
#11590=EDGE_LOOP('',(#11580,#11570,#11510,#11500));
#11600=FACE_OUTER_BOUND('',#11590,.T.);
#11610=ADVANCED_FACE('',(#11600),#11440,.F.);
#11620=ORIENTED_EDGE('',*,*,#5460,.T.);
#11630=ORIENTED_EDGE('',*,*,#7030,.T.);
#11640=ORIENTED_EDGE('',*,*,#5060,.T.);
#11650=CARTESIAN_POINT('',(80.4999999999997,-184.,-38.0000000000077));
#11660=DIRECTION('',(-1.75521551411675E-28,5.10436433241992E-16,1.));
#11670=VECTOR('',#11660,1.);
#11680=LINE('',#11650,#11670);
#11690=EDGE_CURVE('',#2220,#4970,#11680,.T.);
#11700=ORIENTED_EDGE('',*,*,#11690,.T.);
#11710=ORIENTED_EDGE('',*,*,#2250,.F.);
#11720=ORIENTED_EDGE('',*,*,#4230,.F.);
#11730=ORIENTED_EDGE('',*,*,#2900,.F.);
#11740=ORIENTED_EDGE('',*,*,#9960,.T.);
#11750=EDGE_LOOP('',(#11740,#11730,#11720,#11710,#11700,#11640,#11630,
#11620));
#11760=FACE_OUTER_BOUND('',#11750,.T.);
#11770=ADVANCED_FACE('',(#11760),#9130,.F.);
#11780=CARTESIAN_POINT('',(-76.0000000000002,-179.3,-10.6000000000077));
#11790=DIRECTION('',(0.,0.,-1.));
#11800=DIRECTION('',(8.95925946596763E-44,1.,-5.10436433241992E-16));
#11810=AXIS2_PLACEMENT_3D('',#11780,#11790,#11800);
#11820=CONICAL_SURFACE('',#11810,1.6,0.785398163397449);
#11830=EDGE_CURVE('',#10470,#10560,#10630,.T.);
#11840=ORIENTED_EDGE('',*,*,#11830,.F.);
#11850=ORIENTED_EDGE('',*,*,#10570,.F.);
#11860=ORIENTED_EDGE('',*,*,#150,.T.);
#11870=ORIENTED_EDGE('',*,*,#10480,.T.);
#11880=EDGE_LOOP('',(#11870,#11860,#11850,#11840));
#11890=FACE_OUTER_BOUND('',#11880,.T.);
#11900=ADVANCED_FACE('',(#11890),#11820,.F.);
#11910=CARTESIAN_POINT('',(-76.0000000000002,-179.3,-7.74999760000772));
#11920=DIRECTION('',(1.75521551411675E-28,-5.10436433241992E-16,-1.));
#11930=DIRECTION('',(8.95925946596763E-44,1.,-5.10436433241992E-16));
#11940=AXIS2_PLACEMENT_3D('',#11910,#11920,#11930);
#11950=CYLINDRICAL_SURFACE('',#11940,1.6);
#11960=ORIENTED_EDGE('',*,*,#6430,.F.);
#11970=ORIENTED_EDGE('',*,*,#11560,.F.);
#11980=ORIENTED_EDGE('',*,*,#11830,.T.);
#11990=ORIENTED_EDGE('',*,*,#11490,.T.);
#12000=EDGE_LOOP('',(#11990,#11980,#11970,#11960));
#12010=FACE_OUTER_BOUND('',#12000,.T.);
#12020=ADVANCED_FACE('',(#12010),#11950,.F.);
#12030=CARTESIAN_POINT('',(75.9999999999998,-179.3,-10.6000000000077));
#12040=DIRECTION('',(0.,0.,-1.));
#12050=DIRECTION('',(8.95925946596763E-44,1.,-5.10436433241992E-16));
#12060=AXIS2_PLACEMENT_3D('',#12030,#12040,#12050);
#12070=CONICAL_SURFACE('',#12060,1.6,0.785398163397449);
#12080=EDGE_CURVE('',#10960,#11050,#11120,.T.);
#12090=ORIENTED_EDGE('',*,*,#12080,.F.);
#12100=ORIENTED_EDGE('',*,*,#11060,.F.);
#12110=ORIENTED_EDGE('',*,*,#2110,.T.);
#12120=ORIENTED_EDGE('',*,*,#10970,.T.);
#12130=EDGE_LOOP('',(#12120,#12110,#12100,#12090));
#12140=FACE_OUTER_BOUND('',#12130,.T.);
#12150=ADVANCED_FACE('',(#12140),#12070,.F.);
#12160=CARTESIAN_POINT('',(75.9999999999998,-179.3,-7.74999760000772));
#12170=DIRECTION('',(1.75521551411675E-28,-5.10436433241992E-16,-1.));
#12180=DIRECTION('',(8.95925946596763E-44,1.,-5.10436433241992E-16));
#12190=AXIS2_PLACEMENT_3D('',#12160,#12170,#12180);
#12200=CYLINDRICAL_SURFACE('',#12190,1.6);
#12210=ORIENTED_EDGE('',*,*,#4670,.F.);
#12220=ORIENTED_EDGE('',*,*,#11340,.F.);
#12230=ORIENTED_EDGE('',*,*,#12080,.T.);
#12240=ORIENTED_EDGE('',*,*,#11270,.T.);
#12250=EDGE_LOOP('',(#12240,#12230,#12220,#12210));
#12260=FACE_OUTER_BOUND('',#12250,.T.);
#12270=ADVANCED_FACE('',(#12260),#12200,.F.);
#12280=CARTESIAN_POINT('',(-80.5000000000001,-182.,-12.0000000000077));
#12290=DIRECTION('',(1.,-4.80096443081149E-16,1.75766610127694E-28));
#12300=DIRECTION('',(-4.80096443081149E-16,-1.,5.10436433241992E-16));
#12310=AXIS2_PLACEMENT_3D('',#12280,#12290,#12300);
#12320=PLANE('',#12310);
#12330=ORIENTED_EDGE('',*,*,#460,.F.);
#12340=ORIENTED_EDGE('',*,*,#10790,.T.);
#12350=ORIENTED_EDGE('',*,*,#6650,.T.);
#12360=ORIENTED_EDGE('',*,*,#9270,.T.);
#12370=EDGE_LOOP('',(#12360,#12350,#12340,#12330));
#12380=FACE_OUTER_BOUND('',#12370,.T.);
#12390=ADVANCED_FACE('',(#12380),#12320,.F.);
#12400=CARTESIAN_POINT('',(80.4999999999997,-174.6,-12.0000000000077));
#12410=DIRECTION('',(-1.,-4.80096443081149E-16,-1.75276492695657E-28));
#12420=DIRECTION('',(-4.80096443081149E-16,1.,-5.10436433241992E-16));
#12430=AXIS2_PLACEMENT_3D('',#12400,#12410,#12420);
#12440=PLANE('',#12430);
#12450=ORIENTED_EDGE('',*,*,#2330,.F.);
#12460=ORIENTED_EDGE('',*,*,#11690,.F.);
#12470=ORIENTED_EDGE('',*,*,#4980,.T.);
#12480=CARTESIAN_POINT('',(80.4999999999997,-178.6,-38.0000000000077));
#12490=DIRECTION('',(1.75521551411675E-28,-5.10436433241992E-16,-1.));
#12500=VECTOR('',#12490,1.);
#12510=LINE('',#12480,#12500);
#12520=EDGE_CURVE('',#4890,#2320,#12510,.T.);
#12530=ORIENTED_EDGE('',*,*,#12520,.F.);
#12540=EDGE_LOOP('',(#12530,#12470,#12460,#12450));
#12550=FACE_OUTER_BOUND('',#12540,.T.);
#12560=ADVANCED_FACE('',(#12550),#12440,.F.);
#12570=CARTESIAN_POINT('',(76.4999999999997,-178.6,-38.0000000000077));
#12580=DIRECTION('',(1.75521551411675E-28,-5.10436433241992E-16,-1.));
#12590=DIRECTION('',(8.95925946596763E-44,1.,-5.10436433241992E-16));
#12600=AXIS2_PLACEMENT_3D('',#12570,#12580,#12590);
#12610=CYLINDRICAL_SURFACE('',#12600,4.);
#12620=ORIENTED_EDGE('',*,*,#4900,.T.);
#12630=ORIENTED_EDGE('',*,*,#9570,.F.);
#12640=ORIENTED_EDGE('',*,*,#2420,.F.);
#12650=ORIENTED_EDGE('',*,*,#12520,.T.);
#12660=EDGE_LOOP('',(#12650,#12640,#12630,#12620));
#12670=FACE_OUTER_BOUND('',#12660,.T.);
#12680=ADVANCED_FACE('',(#12670),#12610,.T.);
#12690=CARTESIAN_POINT('',(63.1999999999997,-177.1,-35.5000000000077));
#12700=DIRECTION('',(-1.,0.,-1.75521551411675E-28));
#12710=DIRECTION('',(-8.95925946596763E-44,-1.,5.10436433241992E-16));
#12720=AXIS2_PLACEMENT_3D('',#12690,#12700,#12710);
#12730=PLANE('',#12720);
#12740=ORIENTED_EDGE('',*,*,#3300,.T.);
#12750=ORIENTED_EDGE('',*,*,#4390,.T.);
#12760=ORIENTED_EDGE('',*,*,#1060,.F.);
#12770=ORIENTED_EDGE('',*,*,#9470,.F.);
#12780=ORIENTED_EDGE('',*,*,#8660,.T.);
#12790=ORIENTED_EDGE('',*,*,#8950,.T.);
#12800=ORIENTED_EDGE('',*,*,#7790,.F.);
#12810=CARTESIAN_POINT('',(63.1999999999997,-178.3,-24.0000000000078));
#12820=DIRECTION('',(8.95925946596763E-44,1.,-5.10436433241992E-16));
#12830=VECTOR('',#12820,1.);
#12840=LINE('',#12810,#12830);
#12850=EDGE_CURVE('',#7700,#3290,#12840,.T.);
#12860=ORIENTED_EDGE('',*,*,#12850,.F.);
#12870=EDGE_LOOP('',(#12860,#12800,#12790,#12780,#12770,#12760,#12750,
#12740));
#12880=FACE_OUTER_BOUND('',#12870,.T.);
#12890=ADVANCED_FACE('',(#12880),#12730,.F.);
#12900=CARTESIAN_POINT('',(-63.2000000000001,-177.1,-35.5000000000077));
#12910=DIRECTION('',(1.,0.,1.75521551411675E-28));
#12920=DIRECTION('',(8.95925946596763E-44,1.,-5.10436433241992E-16));
#12930=AXIS2_PLACEMENT_3D('',#12900,#12910,#12920);
#12940=PLANE('',#12930);
#12950=ORIENTED_EDGE('',*,*,#9030,.F.);
#12960=ORIENTED_EDGE('',*,*,#8800,.T.);
#12970=ORIENTED_EDGE('',*,*,#9730,.T.);
#12980=ORIENTED_EDGE('',*,*,#780,.T.);
#12990=ORIENTED_EDGE('',*,*,#4470,.F.);
#13000=ORIENTED_EDGE('',*,*,#3460,.T.);
#13010=CARTESIAN_POINT('',(-63.2000000000001,-178.3,-24.0000000000078));
#13020=DIRECTION('',(-8.95925946596763E-44,-1.,5.10436433241992E-16));
#13030=VECTOR('',#13020,1.);
#13040=LINE('',#13010,#13030);
#13050=EDGE_CURVE('',#3370,#7600,#13040,.T.);
#13060=ORIENTED_EDGE('',*,*,#13050,.F.);
#13070=ORIENTED_EDGE('',*,*,#7630,.F.);
#13080=EDGE_LOOP('',(#13070,#13060,#13000,#12990,#12980,#12970,#12960,
#12950));
#13090=FACE_OUTER_BOUND('',#13080,.T.);
#13100=ADVANCED_FACE('',(#13090),#12940,.F.);
#13110=CARTESIAN_POINT('',(60.429289321881,-174.6,-24.0000000000078));
#13120=DIRECTION('',(1.75521551411675E-28,-5.10436433241992E-16,-1.));
#13130=DIRECTION('',(1.,0.,1.75521551411675E-28));
#13140=AXIS2_PLACEMENT_3D('',#13110,#13120,#13130);
#13150=PLANE('',#13140);
#13160=ORIENTED_EDGE('',*,*,#3380,.T.);
#13170=ORIENTED_EDGE('',*,*,#12850,.T.);
#13180=ORIENTED_EDGE('',*,*,#7710,.F.);
#13190=ORIENTED_EDGE('',*,*,#13050,.T.);
#13200=EDGE_LOOP('',(#13190,#13180,#13170,#13160));
#13210=FACE_OUTER_BOUND('',#13200,.T.);
#13220=ADVANCED_FACE('',(#13210),#13150,.F.);
#13230=CLOSED_SHELL('',(#9340,#9620,#9900,#10080,#10160,#10360,#10680,
#10850,#11170,#11390,#11610,#11770,#11900,#12020,#12150,#12270,#5160,
#5720,#6280,#6920,#7160,#7490,#7890,#8220,#8460,#8840,#9080,#12390,
#12560,#12680,#12890,#13100,#13220,#640,#1160,#1720,#1960,#2600,#3160,
#3560,#3800,#4040,#4280,#4520));
#13240=MANIFOLD_SOLID_BREP('',#13230);
#13250=CARTESIAN_POINT('',(0.,0.,0.));
#13260=DIRECTION('',(0.,0.,1.));
#13270=DIRECTION('',(1.,0.,0.));
#13280=AXIS2_PLACEMENT_3D('',#13250,#13260,#13270);
#13290=APPLICATION_CONTEXT(' ');
#13300=APPLICATION_PROTOCOL_DEFINITION(' ','automotive_design',1998,
#13290);
#13310=PRODUCT_CONTEXT('',#13290,'mechanical');
#13320=PRODUCT_DEFINITION_CONTEXT('part definition',#13290,'design');
#13330=PRODUCT('N2605-01005','N2605-01005','',(#13310));
#13340=PRODUCT_RELATED_PRODUCT_CATEGORY('part',' ',(#13330));
#13350=PRODUCT_DEFINITION_FORMATION_WITH_SPECIFIED_SOURCE('','',#13330,
.BOUGHT.);
#13360=PRODUCT_DEFINITION('',' ',#13350,#13320);
#13370=PRODUCT_DEFINITION_SHAPE('','',#13360);
#13380=DIMENSIONAL_EXPONENTS(1.,0.,0.,0.,0.,0.,0.);
#13390=DIMENSIONAL_EXPONENTS(0.,0.,0.,0.,0.,0.,0.);
#13400=DIMENSIONAL_EXPONENTS(0.,0.,0.,0.,0.,0.,0.);
#13410=(LENGTH_UNIT() NAMED_UNIT(*) SI_UNIT(.MILLI.,.METRE.));
#13420=(NAMED_UNIT(*) PLANE_ANGLE_UNIT() SI_UNIT($,.RADIAN.));
#13430=(NAMED_UNIT(*) SI_UNIT($,.STERADIAN.) SOLID_ANGLE_UNIT());
#13440=(GEOMETRIC_REPRESENTATION_CONTEXT(3) 
GLOBAL_UNCERTAINTY_ASSIGNED_CONTEXT((#13450)) 
GLOBAL_UNIT_ASSIGNED_CONTEXT((#13410,#13420,#13430)) 
REPRESENTATION_CONTEXT('',''));
#13450=UNCERTAINTY_MEASURE_WITH_UNIT(LENGTH_MEASURE(1.E-6),#13410,
'distance_accuracy_value','maximum gap value');
#13460=ADVANCED_BREP_SHAPE_REPRESENTATION('',(#13280,#13240),#13440);
#13470=SHAPE_DEFINITION_REPRESENTATION(#13370,#13460);
#13480=COLOUR_RGB('',0.,0.,1.);
#13490=FILL_AREA_STYLE_COLOUR('',#13480);
#13500=FILL_AREA_STYLE('',(#13490));
#13510=SURFACE_STYLE_FILL_AREA(#13500);
#13520=SURFACE_SIDE_STYLE('',(#13510));
#13530=SURFACE_STYLE_USAGE(.BOTH.,#13520);
#13540=PRESENTATION_STYLE_ASSIGNMENT((#13530));
#13550=STYLED_ITEM('',(#13540),#13240);
#13560=DRAUGHTING_MODEL('',(#13550),#13440);
#13570=CARTESIAN_POINT('',(6.99174051987939E-12,1.61151092470391E-11,
33.5000000000093));
#13580=DIRECTION('',(5.10436433241816E-16,5.10436433242163E-16,1.));
#13590=DIRECTION('',(-2.51102362506048E-31,1.,-5.10436433242163E-16));
#13600=AXIS2_PLACEMENT_3D('',#13570,#13580,#13590);
#13610=ITEM_DEFINED_TRANSFORMATION('N2605-01005','',#13280,#13600);
#13620=APPLICATION_CONTEXT(' ');
#13630=APPLICATION_PROTOCOL_DEFINITION(' ','automotive_design',1998,
#13620);
#13640=PRODUCT_CONTEXT('',#13620,'mechanical');
#13650=PRODUCT_DEFINITION_CONTEXT('part definition',#13620,'design');
#13660=PRODUCT('N2605-01005','N2605-01005','',(#13640));
#13670=PRODUCT_RELATED_PRODUCT_CATEGORY('part',' ',(#13660));
#13680=PRODUCT_DEFINITION_FORMATION_WITH_SPECIFIED_SOURCE('','',#13660,
.BOUGHT.);
#13690=PRODUCT_DEFINITION('',' ',#13680,#13650);
#13700=PRODUCT_DEFINITION_SHAPE('','',#13690);
#13710=DIMENSIONAL_EXPONENTS(1.,0.,0.,0.,0.,0.,0.);
#13720=DIMENSIONAL_EXPONENTS(0.,0.,0.,0.,0.,0.,0.);
#13730=DIMENSIONAL_EXPONENTS(0.,0.,0.,0.,0.,0.,0.);
#13740=(LENGTH_UNIT() NAMED_UNIT(*) SI_UNIT(.MILLI.,.METRE.));
#13750=(NAMED_UNIT(*) PLANE_ANGLE_UNIT() SI_UNIT($,.RADIAN.));
#13760=(NAMED_UNIT(*) SI_UNIT($,.STERADIAN.) SOLID_ANGLE_UNIT());
#13770=(GEOMETRIC_REPRESENTATION_CONTEXT(3) 
GLOBAL_UNCERTAINTY_ASSIGNED_CONTEXT((#13780)) 
GLOBAL_UNIT_ASSIGNED_CONTEXT((#13740,#13750,#13760)) 
REPRESENTATION_CONTEXT('',''));
#13780=UNCERTAINTY_MEASURE_WITH_UNIT(LENGTH_MEASURE(1.E-6),#13740,
'distance_accuracy_value','maximum gap value');
#13790=SHAPE_REPRESENTATION('',(#13280,#13600),#13770);
#13800=SHAPE_DEFINITION_REPRESENTATION(#13700,#13790);
#13810=(REPRESENTATION_RELATIONSHIP('','',#13460,#13790) 
REPRESENTATION_RELATIONSHIP_WITH_TRANSFORMATION(#13610) 
SHAPE_REPRESENTATION_RELATIONSHIP());
#13820=NEXT_ASSEMBLY_USAGE_OCCURRENCE('1','','N2605-01005',#13690,#13360
,'');
#13830=PRODUCT_DEFINITION_SHAPE('','',#13820);
#13840=CONTEXT_DEPENDENT_SHAPE_REPRESENTATION(#13810,#13830);
ENDSEC;
END-ISO-10303-21;
